<svg width="250" height="250" viewBox="0 0 250 250" fill="none" xmlns="http://www.w3.org/2000/svg">
<path d="M228.5 170.5V13H92.5L100.5 33.5H212V160L125 214.5V236.5L228.5 170.5Z" fill="#FDFDFD"/>
<path d="M124 214.5V236.5L88.5 214.5L100.5 199L124 214.5Z" fill="#FDFDFD"/>
<path d="M60.5 195L22 170.5V81L39 88.5V160L72.5 181.5L60.5 195Z" fill="#FDFDFD"/>
<path d="M155 154L84 200.5L122 140.5L109.5 127.5L104.5 131.5L26.5 53V18.5H66.5L137 88.5L133 104.5L155 124V154Z" fill="#FDFDFD"/>
<path d="M133 104.5L155 124V154L84 200.5L122 140.5L109.5 127.5M133 104.5L109.5 127.5M133 104.5L137 88.5L66.5 18.5H26.5V53L104.5 131.5L109.5 127.5M228.5 13V170.5L125 236.5V214.5L212 160V33.5H100.5L92.5 13H228.5ZM22 170.5L60.5 195L72.5 181.5L39 160V88.5L22 81V170.5ZM124 236.5V214.5L100.5 199L88.5 214.5L124 236.5Z" stroke="black"/>
</svg>
