<svg width="250" height="250" viewBox="0 0 250 250" fill="none" xmlns="http://www.w3.org/2000/svg">
<path d="M163 33.5L132.5 15L83 71.5L102.5 112L21 187V214.5H61.5L137.5 141L197.5 133L225 97.5L202.5 74L165 109L132.5 102V67.5L163 33.5Z" fill="#FDFDFD"/>
<path d="M132.5 234.5V150.5L165 190V150.5L197.5 190L165 234.5V190L132.5 234.5Z" fill="#FDFDFD"/>
<path d="M132.5 15L163 33.5L132.5 67.5V102L165 109L202.5 74L225 97.5L197.5 133L137.5 141L61.5 214.5H21V187L102.5 112L83 71.5L132.5 15ZM132.5 234.5V150.5L165 190L132.5 234.5ZM165 234.5V150.5L197.5 190L165 234.5Z" stroke="black"/>
</svg>
