<svg width="250" height="250" viewBox="0 0 250 250" fill="none" xmlns="http://www.w3.org/2000/svg">
<path d="M120.739 35L120.991 29.0497C120.863 29.0442 120.735 29.0429 120.607 29.0458L120.739 35ZM28 137.098L22.0476 136.899C22.0447 136.986 22.0437 137.073 22.0446 137.16L28 137.098ZM124.142 234.091L124.106 240.046C124.159 240.047 124.212 240.046 124.264 240.045L124.142 234.091ZM221.986 137.098L227.94 137.244C227.94 137.22 227.941 137.195 227.941 137.171L221.986 137.098ZM225.902 121.506C224.809 118.404 221.408 116.775 218.306 117.867C215.203 118.96 213.574 122.361 214.667 125.463L225.902 121.506ZM199.865 51.1655L151.232 2.54215L133.439 68.9712L199.865 51.1655ZM120.607 29.0458C90.3733 29.7151 65.6651 32.2361 48.6171 47.8755C31.5087 63.5704 23.5793 91.0152 22.0476 136.899L33.9524 137.297C35.4733 91.7378 43.4188 68.8087 56.6694 56.6529C69.9805 44.4416 90.1154 41.6351 120.871 40.9542L120.607 29.0458ZM22.0446 137.16C22.4775 178.896 29.4746 205.384 46.9264 221.012C64.2158 236.495 90.2403 239.84 124.106 240.046L124.178 228.135C90.059 227.928 68.4429 224.291 54.8728 212.139C41.465 200.132 34.3836 178.33 33.9554 137.036L22.0446 137.16ZM124.264 240.045C160.661 239.297 186.776 234.097 203.71 217.824C220.697 201.499 227.001 175.449 227.94 137.244L216.032 136.952C215.104 174.733 208.778 196.434 195.456 209.236C182.081 222.09 160.208 227.393 124.02 228.136L124.264 240.045ZM227.941 137.171C228.016 131.098 227.876 127.111 225.902 121.506L214.667 125.463C215.935 129.065 216.1 131.367 216.031 137.025L227.941 137.171ZM120.486 40.9503C130.865 41.3909 139.507 42.125 147.271 43.1964L148.899 31.3968C140.677 30.2621 131.647 29.5019 120.991 29.0497L120.486 40.9503Z" fill="#BAB9BA"/>
<path d="M109.678 104.767V157.517H153.921" stroke="#BAB9BA" stroke-width="20.4196" stroke-linecap="round" stroke-linejoin="round"/>
</svg>
