<svg width="250" height="250" viewBox="0 0 250 250" fill="none" xmlns="http://www.w3.org/2000/svg">
<path d="M152 213H110.5V168L89.5 147.5V99L114.5 73.5V123.5H148.5V73.5L173.5 99V147.5L152 168V213Z" fill="#608CC3" stroke="black"/>
<path d="M92 176V188L50 185.5L26.5 160.5V135H42V97.5L30 96V75.5L56 42L75 50.5L100 37.5V20H157.5V37.5L184.5 53L201.5 46L226 68V93L212.5 102.5V135L224 137.5V162.5L210 185.5L168.5 183.5V169.5L187 160.5L196.5 169.5L210 159V145L196.5 141.5V93L212.5 82.5L199.5 63.5L182.5 72L144 50.5L139 32.5L114.5 34.5L110.5 53L75 72L63 63.5L48 80L63 91.5L50 144V159L61.5 169.5L92 176Z" fill="#608CC3" stroke="black"/>
</svg>
