<svg width="250" height="250" viewBox="0 0 250 250" fill="none" xmlns="http://www.w3.org/2000/svg">
<rect width="250" height="250" fill="none"/>
<g clip-path="url(#clip0_0_1)">
<path d="M172.945 77.3047L3 247.249L111.147 99.3755L77.3047 82.4546L130.274 63.3266L41.9916 25.0707L247.985 3L228.857 129.539L172.945 77.3047Z" fill="#FDFDFD" stroke="black" stroke-width="1.47138"/>
<path d="M170.226 104L131 140.619C160.01 163.018 176.604 164.557 207 140.619L170.226 104Z" fill="#FDFDFD" stroke="black" stroke-width="1.47"/>
<path d="M213.226 154L174 190.619C203.01 213.018 219.604 214.557 250 190.619L213.226 154Z" fill="#FDFDFD" stroke="black" stroke-width="1.47"/>
<path d="M125.226 154L86 190.619C115.01 213.018 131.604 214.557 162 190.619L125.226 154Z" fill="#FDFDFD" stroke="black" stroke-width="1.47"/>
</g>
<defs>
<clipPath id="clip0_0_1">
<rect width="250" height="250" fill="white"/>
</clipPath>
</defs>
</svg>
