<svg width="250" height="250" viewBox="0 0 250 250" fill="none" xmlns="http://www.w3.org/2000/svg">
<path d="M172.5 169.5H133.5C134.059 201.26 139.604 210.056 179 210C205.557 209.417 213.756 200.694 215 169.5C215.353 134.169 202.084 122.472 172.5 122V169.5Z" fill="#FDFDFD"/>
<path d="M163.5 109L148.5 116.5V86.5V74L153.5 70V58L163.5 49.5L179 58V86.5V109H163.5Z" fill="#FDFDFD"/>
<path d="M125.5 190V196H106V182.5H94H86.5V196H59.5V182.5H40.5L53.5 158.5V86.5V65L70 49.5L86.5 65V86.5V158.5H100V86.5V77L106 70V58L117 49.5L133.5 65V86.5V128.5L120 144.5V184.5L125.5 190Z" fill="#FDFDFD"/>
<path d="M179 86.5V109H163.5L148.5 116.5V86.5M179 86.5H148.5M179 86.5V58L163.5 49.5L153.5 58V70L148.5 74V86.5M133.5 86.5V128.5L120 144.5V184.5L125.5 190V196H106V182.5H94H86.5V196H59.5V182.5H40.5L53.5 158.5V86.5M133.5 86.5H100M133.5 86.5V65L117 49.5L106 58V70L100 77V86.5M100 86.5V158.5H86.5V86.5M86.5 86.5H53.5M86.5 86.5V65L70 49.5L53.5 65V86.5M133.5 169.5H172.5V122C202.084 122.472 215.353 134.169 215 169.5C213.756 200.694 205.557 209.417 179 210C139.604 210.056 134.059 201.26 133.5 169.5Z" stroke="black"/>
</svg>
