<svg width="250" height="250" viewBox="0 0 250 250" fill="none" xmlns="http://www.w3.org/2000/svg">
<path d="M217 120.5C214.835 193.694 187.323 214.044 125.5 215.5V200.5C185.098 198.808 200.714 179.904 201.5 120.5C200.032 57.9462 182.991 40.9905 125.5 41C59.4265 42.0948 43.0949 61.3564 41.5 120.5C41.8961 186.472 63.5597 200.342 125 200.5L125 215.5C48.3446 215.128 29.2021 194.371 29.5002 120.446C30.311 42.9249 53.6945 27.208 125.5 27C195.996 26.9558 215.424 48.0642 217 120.5Z" fill="#FDFDFD" stroke="black"/>
<path d="M128.5 185.5H122V175V168V158H128.5V168C163.637 168.583 175.046 159.862 174.5 121.5H167.5V114.5H174.5C175.392 75.7032 162.886 68.3212 128.5 68.5V77H122V68.5C85.3327 68.3666 75.2448 78.6401 75 114.5H86V121.5H75C74.9347 156.463 84.0977 167.941 121.538 168.008L121.5 175C81.6232 174.559 67.7617 164.815 68.5 121.5H57.5V114.5H68.5C68.12 71.5 80.8195 60.8101 122 61V52H128.5V61C168.27 61.0864 182.292 70.2553 182 114.5H188.5V121.5H182C181.538 165.83 167.868 175.301 128.5 175V185.5Z" fill="#FDFDFD" stroke="black"/>
<circle cx="125" cy="119" r="16.5" fill="#FDFDFD" stroke="black"/>
</svg>
