<svg width="250" height="250" viewBox="0 0 250 250" fill="none" xmlns="http://www.w3.org/2000/svg">
<path d="M22 127C23.6041 47.2113 45.3279 23.5994 125 23C217.123 23.4947 227.912 55.72 229.5 127C227.028 200.9 207.34 225.694 125 227C47.9507 225.747 22.4047 206.926 22 127Z" stroke="white" stroke-width="8" stroke-linecap="round"/>
<path d="M143.5 66.5L128.5 51.5L115 66.5H73.5L111.5 107.5V125L128.5 143.5L145.5 125V107.5L182.5 66.5H143.5Z" fill="white" stroke="white" stroke-width="9" stroke-linecap="round" stroke-linejoin="round"/>
<path d="M154.5 188L144.5 199.5C130.412 191.743 122.884 192.078 110 199.5L100.5 188C121.59 175.901 133.415 175.899 154.5 188Z" fill="white" stroke="white" stroke-width="9" stroke-linecap="round" stroke-linejoin="round"/>
<path d="M175.5 159L163.5 172.5C149.95 165.657 139.099 162.111 128.5 161.599C115.73 160.982 103.325 164.769 87 172.5L77.5 159C90.0322 152.292 96.9365 149.29 109 145.5L128.5 161.599L146 145.5C158.549 149.39 165.045 152.296 175.5 159Z" fill="white"/>
<path d="M163.5 172.5L175.5 159C165.045 152.296 158.549 149.39 146 145.5L128.5 161.599L109 145.5C96.9365 149.29 90.0322 152.292 77.5 159L87 172.5C116.875 158.353 133.625 157.413 163.5 172.5Z" stroke="white" stroke-width="9" stroke-linecap="round" stroke-linejoin="round"/>
<path d="M192.5 132.5L182 147C171.129 141.002 165.816 137.762 156 134.5L161 117.5C176.126 119.282 180.087 121.54 192.5 132.5Z" fill="white" stroke="white" stroke-width="9" stroke-linecap="round" stroke-linejoin="round"/>
<path d="M210.5 103L198 117C185.384 108.81 179.286 105.964 168.5 103L183.5 87.5C196.859 90.169 202.462 93.9337 210.5 103Z" fill="white" stroke="white" stroke-width="9" stroke-linecap="round" stroke-linejoin="round"/>
<path d="M64 133L74.5 147.5C82.4929 141.433 87.9429 138.481 100.5 135L95.5 118C80.3737 119.782 76.413 122.04 64 133Z" fill="white" stroke="white" stroke-width="9" stroke-linecap="round" stroke-linejoin="round"/>
<path d="M46 103.5L58.5 117.5C67.9703 109.698 74.7003 106.997 88 103.5L73 88C59.6412 90.669 54.038 94.4337 46 103.5Z" fill="white" stroke="white" stroke-width="9" stroke-linecap="round" stroke-linejoin="round"/>
</svg>
