<svg width="250" height="250" viewBox="0 0 250 250" fill="none" xmlns="http://www.w3.org/2000/svg">
<path d="M22 127C23.6041 47.2113 45.3279 23.5994 125 23C217.123 23.4947 227.912 55.72 229.5 127C227.028 200.9 207.34 225.694 125 227C47.9507 225.747 22.4047 206.926 22 127Z" stroke="white" stroke-width="8" stroke-linecap="round"/>
<path d="M118.5 46.5H105.5V59H114V71H111V79H143V71H139V59H147V46.5H135V43H118.5V46.5Z" fill="white" stroke="white" stroke-width="4" stroke-linejoin="round"/>
<path fill-rule="evenodd" clip-rule="evenodd" d="M110.5 84H142.5V185H110.5V84ZM113 153H126V180H113V153Z" fill="white"/>
<path d="M142.5 84H144.5C144.5 82.8954 143.605 82 142.5 82V84ZM110.5 84V82C109.395 82 108.5 82.8954 108.5 84H110.5ZM142.5 185V187C143.605 187 144.5 186.105 144.5 185H142.5ZM110.5 185H108.5C108.5 186.105 109.395 187 110.5 187V185ZM126 153H128C128 151.895 127.105 151 126 151V153ZM113 153V151C111.895 151 111 151.895 111 153H113ZM126 180V182C127.105 182 128 181.105 128 180H126ZM113 180H111C111 181.105 111.895 182 113 182V180ZM142.5 82H110.5V86H142.5V82ZM144.5 185V84H140.5V185H144.5ZM110.5 187H142.5V183H110.5V187ZM108.5 84V185H112.5V84H108.5ZM126 151H113V155H126V151ZM128 180V153H124V180H128ZM113 182H126V178H113V182ZM111 153V180H115V153H111Z" fill="white"/>
<path d="M143 190H110V202C125.873 213.88 132.239 210.463 143 202V190Z" fill="white" stroke="white" stroke-width="4" stroke-linejoin="round"/>
<path d="M164.5 153C157.06 126.582 156.125 110.208 155.5 80.5C161.631 102.568 165.579 114.13 177.5 127C178.534 119.114 177.126 113.912 173 104C187.686 117.888 190.564 129.345 191 153L199.5 147.5C190.514 179.661 179.084 187.992 155.5 198C174.407 178.833 176.716 166.533 175 143.5L164.5 153Z" fill="white" stroke="white" stroke-width="4" stroke-linejoin="round"/>
<path d="M88 153.5C95.4402 127.082 96.3747 110.708 97 81C90.8689 103.068 86.9211 114.63 75 127.5C73.9657 119.614 75.3736 114.412 79.5 104.5C64.8137 118.388 61.9364 129.845 61.5 153.5L53 148C61.9863 180.161 73.4162 188.492 97 198.5C78.0927 179.333 75.7843 167.033 77.5 144L88 153.5Z" fill="white" stroke="white" stroke-width="4" stroke-linejoin="round"/>
</svg>
