<svg width="250" height="250" viewBox="0 0 250 250" fill="none" xmlns="http://www.w3.org/2000/svg">
<path d="M22 127C23.6041 47.2113 45.3279 23.5994 125 23C217.123 23.4947 227.912 55.72 229.5 127C227.028 200.9 207.34 225.694 125 227C47.9507 225.747 22.4047 206.926 22 127Z" stroke="white" stroke-width="8" stroke-linecap="round"/>
<path fill-rule="evenodd" clip-rule="evenodd" d="M187.5 59L114 106L102.5 74.5L82.5 104L58.5 82.5C58.1826 84.3864 57.8691 86.243 57.5604 88.071C49.5846 135.309 44.8325 163.454 58.5 193.5C81.2268 205.76 111.259 203.629 159.815 200.183C162.964 199.96 166.192 199.731 169.5 199.5L150.5 171L180.5 157L150.5 138L187.5 59ZM145 105.295L98 138.5L88.5 125.5L76 145.5L66.5 132.5C61.6101 161.56 62.8155 164.577 70.9632 182.488C84.2503 189.656 90.2942 189.23 118.083 187.275C119.343 187.186 120.648 187.094 122 187L109 171.5L129 157.5L114.5 152L145 105.295Z" fill="white"/>
<path d="M114 106L111.652 106.857C111.912 107.57 112.481 108.126 113.2 108.368C113.918 108.611 114.708 108.515 115.347 108.106L114 106ZM187.5 59L189.764 60.0603C190.236 59.0526 189.985 57.8541 189.148 57.1204C188.312 56.3866 187.091 56.2943 186.153 56.8938L187.5 59ZM102.5 74.5L104.848 73.6427C104.527 72.761 103.738 72.1339 102.806 72.0188C101.875 71.9038 100.957 72.3202 100.431 73.0971L102.5 74.5ZM82.5 104L80.8319 105.862C81.3693 106.344 82.0886 106.569 82.8049 106.481C83.5211 106.393 84.1643 106 84.5693 105.403L82.5 104ZM58.5 82.5L60.1681 80.6379C59.4895 80.03 58.5338 79.8394 57.6738 80.1405C56.8139 80.4415 56.1858 81.1867 56.0346 82.0852L58.5 82.5ZM57.5604 88.071L55.0953 87.6548L55.0953 87.6548L57.5604 88.071ZM58.5 193.5L56.2244 194.535C56.4504 195.032 56.8327 195.441 57.3131 195.7L58.5 193.5ZM159.815 200.183L159.992 202.677L159.992 202.677L159.815 200.183ZM169.5 199.5L169.674 201.994C170.563 201.932 171.351 201.402 171.744 200.602C172.137 199.803 172.074 198.854 171.58 198.113L169.5 199.5ZM150.5 171L149.443 168.735C148.782 169.043 148.289 169.624 148.093 170.326C147.896 171.028 148.016 171.78 148.42 172.387L150.5 171ZM180.5 157L181.557 159.265C182.385 158.879 182.936 158.072 182.995 157.16C183.053 156.248 182.61 155.377 181.838 154.888L180.5 157ZM150.5 138L148.236 136.94C147.702 138.08 148.099 139.439 149.162 140.112L150.5 138ZM98 138.5L95.9815 139.975C96.787 141.077 98.3276 141.33 99.4425 140.542L98 138.5ZM145 105.295L147.093 106.662C147.749 105.657 147.599 104.328 146.735 103.495C145.871 102.662 144.537 102.56 143.557 103.253L145 105.295ZM88.5 125.5L90.5185 124.025C90.0289 123.355 89.2387 122.972 88.4094 123.002C87.5801 123.032 86.8198 123.471 86.38 124.175L88.5 125.5ZM76 145.5L73.9815 146.975C74.4711 147.645 75.2613 148.028 76.0906 147.998C76.9199 147.968 77.6802 147.529 78.12 146.825L76 145.5ZM66.5 132.5L68.5185 131.025C67.9252 130.213 66.9033 129.836 65.9247 130.067C64.9462 130.298 64.2015 131.094 64.0347 132.085L66.5 132.5ZM70.9632 182.488L68.6876 183.523C68.9136 184.02 69.2959 184.429 69.7763 184.688L70.9632 182.488ZM118.083 187.275L117.907 184.781L117.907 184.781L118.083 187.275ZM122 187L122.174 189.494C123.112 189.428 123.934 188.842 124.301 187.977C124.669 187.112 124.52 186.114 123.915 185.393L122 187ZM109 171.5L107.566 169.452C106.992 169.854 106.613 170.478 106.521 171.173C106.43 171.868 106.634 172.57 107.085 173.107L109 171.5ZM129 157.5L130.434 159.548C131.192 159.017 131.595 158.11 131.481 157.191C131.366 156.271 130.753 155.491 129.887 155.163L129 157.5ZM114.5 152L112.407 150.633C111.993 151.267 111.888 152.054 112.123 152.774C112.357 153.494 112.905 154.069 113.613 154.337L114.5 152ZM115.347 108.106L188.847 61.1062L186.153 56.8938L112.653 103.894L115.347 108.106ZM100.152 75.3573L111.652 106.857L116.348 105.143L104.848 73.6427L100.152 75.3573ZM84.5693 105.403L104.569 75.9029L100.431 73.0971L80.4307 102.597L84.5693 105.403ZM56.8319 84.3621L80.8319 105.862L84.1681 102.138L60.1681 80.6379L56.8319 84.3621ZM60.0256 88.4872C60.3342 86.6593 60.6478 84.8021 60.9653 82.9148L56.0346 82.0852C55.7174 83.9708 55.404 85.8267 55.0953 87.6548L60.0256 88.4872ZM60.7756 192.465C47.4833 163.244 52.0175 135.916 60.0256 88.4872L55.0953 87.6548C47.1517 134.703 42.1817 163.665 56.2244 194.535L60.7756 192.465ZM159.638 197.69C135.313 199.416 115.815 200.796 99.5581 200.233C83.332 199.67 70.575 197.173 59.6869 191.3L57.3131 195.7C69.1518 202.086 82.7743 204.654 99.3849 205.23C115.964 205.804 135.76 204.396 159.992 202.677L159.638 197.69ZM169.326 197.006C166.016 197.237 162.787 197.466 159.638 197.69L159.992 202.677C163.141 202.454 166.367 202.225 169.674 201.994L169.326 197.006ZM148.42 172.387L167.42 200.887L171.58 198.113L152.58 169.613L148.42 172.387ZM179.443 154.735L149.443 168.735L151.557 173.265L181.557 159.265L179.443 154.735ZM149.162 140.112L179.162 159.112L181.838 154.888L151.838 135.888L149.162 140.112ZM185.236 57.9397L148.236 136.94L152.764 139.06L189.764 60.0603L185.236 57.9397ZM99.4425 140.542L146.443 107.337L143.557 103.253L96.5575 136.458L99.4425 140.542ZM86.4815 126.975L95.9815 139.975L100.018 137.025L90.5185 124.025L86.4815 126.975ZM78.12 146.825L90.62 126.825L86.38 124.175L73.88 144.175L78.12 146.825ZM64.4815 133.975L73.9815 146.975L78.0185 144.025L68.5185 131.025L64.4815 133.975ZM73.2388 181.453C69.1329 172.427 66.9866 167.564 66.3283 161.409C65.6619 155.178 66.5127 147.491 68.9653 132.915L64.0347 132.085C61.5974 146.57 60.6059 154.921 61.3567 161.941C62.1156 169.037 64.6458 174.638 68.6876 183.523L73.2388 181.453ZM117.907 184.781C103.923 185.765 95.6976 186.337 89.2894 185.811C83.0753 185.301 78.5777 183.755 72.1501 180.288L69.7763 184.688C76.6358 188.389 81.8037 190.214 88.8805 190.794C95.7632 191.359 104.454 190.74 118.258 189.769L117.907 184.781ZM121.826 184.506C120.473 184.601 119.167 184.692 117.907 184.781L118.258 189.769C119.519 189.68 120.823 189.588 122.174 189.494L121.826 184.506ZM107.085 173.107L120.085 188.607L123.915 185.393L110.915 169.893L107.085 173.107ZM127.566 155.452L107.566 169.452L110.434 173.548L130.434 159.548L127.566 155.452ZM113.613 154.337L128.113 159.837L129.887 155.163L115.387 149.663L113.613 154.337ZM142.907 103.928L112.407 150.633L116.593 153.367L147.093 106.662L142.907 103.928Z" fill="white"/>
</svg>
