<svg width="250" height="250" viewBox="0 0 250 250" fill="none" xmlns="http://www.w3.org/2000/svg">
<path d="M22 127C23.6041 47.2113 45.3279 23.5994 125 23C217.123 23.4947 227.912 55.72 229.5 127C227.028 200.9 207.34 225.694 125 227C47.9507 225.747 22.4047 206.926 22 127Z" stroke="white" stroke-width="8" stroke-linecap="round"/>
<path d="M126 145C88.7019 145.629 73.7205 141.236 55 127C33.7383 137.626 31.2015 143.827 69.5 156C78.8393 158.557 94.1011 162.828 126 162.5C159.637 162.7 172.598 159.018 183 156C220.922 144.494 218.959 138.174 198 127C179.092 141.66 163.383 145.645 126 145Z" fill="white" stroke="white" stroke-width="2" stroke-linecap="round" stroke-linejoin="round"/>
<path d="M170.5 133L196 80L153.5 108L125.5 33.5L100 108L56 80L84 131L88 119L109 139L125.5 108L144.5 139L163 119L170.5 133Z" fill="white" stroke="white" stroke-width="2" stroke-linecap="round" stroke-linejoin="round"/>
<path d="M184.5 187L173.5 163C161.956 165.299 157.211 168.473 150 175.5L184.5 187Z" fill="white" stroke="white" stroke-width="2" stroke-linecap="round" stroke-linejoin="round"/>
<path d="M67 187L78 163C89.5441 165.299 94.289 168.473 101.5 175.5L67 187Z" fill="white" stroke="white" stroke-width="2" stroke-linecap="round" stroke-linejoin="round"/>
<path d="M108 169L126 208.5L142.86 169L126 177L108 169Z" fill="white" stroke="white" stroke-width="2" stroke-linecap="round" stroke-linejoin="round"/>
</svg>
