<svg width="250" height="250" viewBox="0 0 250 250" fill="none" xmlns="http://www.w3.org/2000/svg">
<path d="M22 127C23.6041 47.2113 45.3279 23.5994 125 23C217.123 23.4947 227.912 55.72 229.5 127C227.028 200.9 207.34 225.694 125 227C47.9507 225.747 22.4047 206.926 22 127Z" stroke="white" stroke-width="8" stroke-linecap="round"/>
<circle cx="124.59" cy="124.59" r="78.5901" stroke="white" stroke-width="8"/>
<path d="M123.721 46.4369V64.4369" stroke="white" stroke-width="8" stroke-linecap="round" stroke-linejoin="round"/>
<path d="M202.459 128.937H185.459" stroke="white" stroke-width="8" stroke-linecap="round" stroke-linejoin="round"/>
<path d="M65.4595 128.937H45.9595" stroke="white" stroke-width="8" stroke-linecap="round" stroke-linejoin="round"/>
<path d="M124.59 186.937V201.437" stroke="white" stroke-width="8" stroke-linecap="round" stroke-linejoin="round"/>
<path fill-rule="evenodd" clip-rule="evenodd" d="M159 106L173.5 121.5L145 148L155.5 159.5L141 175L136 168.5H101L96.5 173.5L77 154L83.5 148V115.5L77 109.5L93 94.5L101 106L132.5 77L146 92.5L110 125L113.5 132.5L106 139L111.5 145L119 138L124 142.5L159 106ZM98.5 146.5L104 153L94 162.5L88.5 156.5L98.5 146.5Z" fill="white"/>
<path d="M173.5 121.5L173.84 121.866C173.938 121.776 173.995 121.65 174 121.517C174.004 121.385 173.956 121.255 173.865 121.158L173.5 121.5ZM159 106L159.365 105.658C159.271 105.558 159.14 105.501 159.003 105.5C158.866 105.499 158.734 105.555 158.639 105.654L159 106ZM145 148L144.66 147.634C144.459 147.821 144.446 148.135 144.631 148.337L145 148ZM155.5 159.5L155.865 159.842C156.043 159.651 156.045 159.356 155.869 159.163L155.5 159.5ZM141 175L140.604 175.305C140.693 175.421 140.829 175.492 140.976 175.499C141.123 175.506 141.265 175.449 141.365 175.342L141 175ZM136 168.5L136.396 168.195C136.302 168.072 136.155 168 136 168V168.5ZM101 168.5V168C100.858 168 100.723 168.06 100.628 168.166L101 168.5ZM96.5 173.5L96.1464 173.854C96.2434 173.951 96.376 174.003 96.5131 174C96.6503 173.996 96.7799 173.936 96.8716 173.834L96.5 173.5ZM77 154L76.6609 153.633C76.5609 153.725 76.5028 153.854 76.5001 153.99C76.4974 154.126 76.5502 154.257 76.6464 154.354L77 154ZM83.5 148L83.8391 148.367C83.9417 148.273 84 148.14 84 148H83.5ZM83.5 115.5H84C84 115.36 83.9417 115.227 83.8391 115.133L83.5 115.5ZM77 109.5L76.658 109.135C76.5567 109.23 76.4995 109.363 76.5 109.502C76.5005 109.641 76.5588 109.773 76.6609 109.867L77 109.5ZM93 94.5L93.4105 94.2145C93.3275 94.0952 93.1968 94.018 93.0524 94.0027C92.9079 93.9875 92.764 94.0359 92.658 94.1352L93 94.5ZM101 106L100.59 106.286C100.672 106.404 100.802 106.481 100.945 106.497C101.089 106.513 101.232 106.466 101.339 106.368L101 106ZM132.5 77L132.877 76.6716C132.788 76.5698 132.662 76.5082 132.528 76.5008C132.393 76.4933 132.261 76.5407 132.161 76.6322L132.5 77ZM146 92.5L146.335 92.8711C146.537 92.6884 146.556 92.3772 146.377 92.1716L146 92.5ZM110 125L109.665 124.629C109.502 124.776 109.454 125.012 109.547 125.211L110 125ZM113.5 132.5L113.827 132.878C113.996 132.732 114.048 132.491 113.953 132.289L113.5 132.5ZM106 139L105.673 138.622C105.57 138.711 105.509 138.837 105.501 138.971C105.493 139.106 105.54 139.238 105.631 139.338L106 139ZM111.5 145L111.131 145.338C111.222 145.436 111.347 145.494 111.481 145.5C111.614 145.505 111.744 145.457 111.841 145.366L111.5 145ZM119 138L119.334 137.628C119.142 137.455 118.848 137.458 118.659 137.634L119 138ZM124 142.5L123.666 142.872C123.866 143.052 124.174 143.041 124.361 142.846L124 142.5ZM104 153L104.344 153.362C104.536 153.18 104.553 152.879 104.382 152.677L104 153ZM98.5 146.5L98.8817 146.177C98.7914 146.07 98.6605 146.006 98.5208 146C98.3811 145.995 98.2453 146.048 98.1464 146.146L98.5 146.5ZM94 162.5L93.6314 162.838C93.7221 162.937 93.8487 162.995 93.9827 163C94.1168 163.004 94.2471 162.955 94.3444 162.862L94 162.5ZM88.5 156.5L88.1464 156.146C87.9572 156.336 87.9505 156.641 88.1314 156.838L88.5 156.5ZM173.865 121.158L159.365 105.658L158.635 106.342L173.135 121.842L173.865 121.158ZM145.34 148.366L173.84 121.866L173.16 121.134L144.66 147.634L145.34 148.366ZM155.869 159.163L145.369 147.663L144.631 148.337L155.131 159.837L155.869 159.163ZM141.365 175.342L155.865 159.842L155.135 159.158L140.635 174.658L141.365 175.342ZM135.604 168.805L140.604 175.305L141.396 174.695L136.396 168.195L135.604 168.805ZM101 169H136V168H101V169ZM96.8716 173.834L101.372 168.834L100.628 168.166L96.1284 173.166L96.8716 173.834ZM76.6464 154.354L96.1464 173.854L96.8536 173.146L77.3536 153.646L76.6464 154.354ZM83.1609 147.633L76.6609 153.633L77.3391 154.367L83.8391 148.367L83.1609 147.633ZM83 115.5V148H84V115.5H83ZM76.6609 109.867L83.1609 115.867L83.8391 115.133L77.3391 109.133L76.6609 109.867ZM92.658 94.1352L76.658 109.135L77.342 109.865L93.342 94.8648L92.658 94.1352ZM101.41 105.714L93.4105 94.2145L92.5895 94.7855L100.59 106.286L101.41 105.714ZM132.161 76.6322L100.661 105.632L101.339 106.368L132.839 77.3678L132.161 76.6322ZM146.377 92.1716L132.877 76.6716L132.123 77.3284L145.623 92.8284L146.377 92.1716ZM110.335 125.371L146.335 92.8711L145.665 92.1289L109.665 124.629L110.335 125.371ZM113.953 132.289L110.453 124.789L109.547 125.211L113.047 132.711L113.953 132.289ZM106.327 139.378L113.827 132.878L113.173 132.122L105.673 138.622L106.327 139.378ZM111.869 144.662L106.369 138.662L105.631 139.338L111.131 145.338L111.869 144.662ZM118.659 137.634L111.159 144.634L111.841 145.366L119.341 138.366L118.659 137.634ZM124.334 142.128L119.334 137.628L118.666 138.372L123.666 142.872L124.334 142.128ZM158.639 105.654L123.639 142.154L124.361 142.846L159.361 106.346L158.639 105.654ZM104.382 152.677L98.8817 146.177L98.1183 146.823L103.618 153.323L104.382 152.677ZM94.3444 162.862L104.344 153.362L103.656 152.638L93.6556 162.138L94.3444 162.862ZM88.1314 156.838L93.6314 162.838L94.3686 162.162L88.8686 156.162L88.1314 156.838ZM98.1464 146.146L88.1464 156.146L88.8536 156.854L98.8536 146.854L98.1464 146.146Z" fill="white"/>
</svg>
