<svg width="250" height="250" viewBox="0 0 250 250" fill="none" xmlns="http://www.w3.org/2000/svg">
<path d="M22 127C23.6041 47.2113 45.3279 23.5994 125 23C217.123 23.4947 227.912 55.72 229.5 127C227.028 200.9 207.34 225.694 125 227C47.9507 225.747 22.4047 206.926 22 127Z" stroke="white" stroke-width="8" stroke-linecap="round"/>
<path d="M56.0047 118.5L128.005 195.5H123.005C66.1767 194.634 55.7441 175.24 56.0047 124V118.5Z" fill="white" stroke="white" stroke-width="4" stroke-linejoin="round"/>
<path d="M103.505 136L92.5047 146.62L100.386 155L111.005 145L103.505 136Z" fill="white"/>
<path d="M59.0047 111L92.5047 146.62M138.005 195L100.386 155M92.5047 146.62L103.505 136L111.005 145L100.386 155M92.5047 146.62L100.386 155" stroke="white" stroke-width="4" stroke-linejoin="round"/>
<path d="M142.505 156.5C137.331 126.715 129.28 113.989 96.5047 105.5V122C116.695 126.99 123.126 134.57 126.005 156.5H142.505Z" fill="white" stroke="white" stroke-width="4" stroke-linejoin="round"/>
<path d="M172.505 156.5C165.017 103.399 153.609 80.6005 97.0047 75V90C136.614 96.3354 150.846 110.188 159.505 156.5H172.505Z" fill="white" stroke="white" stroke-width="4" stroke-linejoin="round"/>
<path d="M204.005 157C193.615 81.495 172.199 54.5518 96.0047 44V59C157.208 68.8762 178.463 89.3149 189.005 157H204.005Z" fill="white" stroke="white" stroke-width="4" stroke-linejoin="round"/>
</svg>
