<svg width="250" height="250" viewBox="0 0 250 250" fill="none" xmlns="http://www.w3.org/2000/svg">
<path d="M22 127C23.6041 47.2113 45.3279 23.5994 125 23C217.123 23.4947 227.912 55.72 229.5 127C227.028 200.9 207.34 225.694 125 227C47.9507 225.747 22.4047 206.926 22 127Z" stroke="white" stroke-width="8" stroke-linecap="round"/>
<path fill-rule="evenodd" clip-rule="evenodd" d="M46.5 79L61 65.5H189.5L203.5 79V168L189.5 181.5H61L46.5 168V79ZM110 85H146.5L135 120.5L151.5 125.5L110 166L119.5 128.5L101.5 123L110 85ZM192 85H182V161H192V85ZM69.5 85V161.5H59.5V85H69.5Z" fill="white"/>
</svg>
