<svg width="250" height="250" viewBox="0 0 250 250" fill="none" xmlns="http://www.w3.org/2000/svg">
<path d="M22 127C23.6041 47.2113 45.3279 23.5994 125 23C217.123 23.4947 227.912 55.72 229.5 127C227.028 200.9 207.34 225.694 125 227C47.9507 225.747 22.4047 206.926 22 127Z" stroke="white" stroke-width="8" stroke-linecap="round"/>
<path d="M200.5 142H156V154.5L163 157L131 179.5V214.5L144 203V186.5H167.5L182 179.5L170 170.5V164.5L200.5 142Z" fill="white" stroke="white" stroke-width="4" stroke-linejoin="round"/>
<path d="M50 142.5H94.5V155L87.5 157.5L119.5 180V215L106.5 203.5V187H83L68.5 180L80.5 171V165L50 142.5Z" fill="white" stroke="white" stroke-width="4" stroke-linejoin="round"/>
<path d="M133.5 37H117.5V120.5L107.5 111L109.5 129.5L93.5 116C99.6568 141.683 104.343 153.653 125 158.5C144.043 152.157 149.73 140.544 157.5 116L142 129.5L144 111L133.5 120.5V37Z" fill="white" stroke="white" stroke-width="4" stroke-linejoin="round"/>
</svg>
