<svg width="250" height="250" viewBox="0 0 250 250" fill="none" xmlns="http://www.w3.org/2000/svg">
<path d="M22 127C23.6041 47.2113 45.3279 23.5994 125 23C217.123 23.4947 227.912 55.72 229.5 127C227.028 200.9 207.34 225.694 125 227C47.9507 225.747 22.4047 206.926 22 127Z" stroke="white" stroke-width="8" stroke-linecap="round"/>
<path d="M211.5 92H186.5M186.5 92V79L171.5 64.5H80.5L66 79V92M186.5 92V125M66 92H42.5M66 92V125M42.5 125H66M66 125V158M186.5 125H211.5M186.5 125V158M211.5 158H186.5M186.5 158V172.5L171.5 186H80.5L66 172.5V158M66 158H42.5" stroke="white" stroke-width="9" stroke-linejoin="round"/>
<path fill-rule="evenodd" clip-rule="evenodd" d="M166 77.5L175 86V165.5L166 173H87.5L79 165.5V86L87.5 77.5H166ZM104 116.5C102.781 142.971 105.984 153.269 127.5 157C146.062 153.635 149.024 142.784 148.5 116.5C144.698 124.528 142.2 127.356 137 129L127.5 92L115.5 129C109.448 126.796 107.104 123.76 104 116.5Z" fill="white"/>
<path d="M175 86H176V85.569L175.687 85.273L175 86ZM166 77.5L166.687 76.773L166.398 76.5H166V77.5ZM175 165.5L175.64 166.268L176 165.968V165.5H175ZM166 173V174H166.362L166.64 173.768L166 173ZM87.5 173L86.8384 173.75L87.1219 174H87.5V173ZM79 165.5H78V165.951L78.3384 166.25L79 165.5ZM79 86L78.2929 85.2929L78 85.5858V86H79ZM87.5 77.5V76.5H87.0858L86.7929 76.7929L87.5 77.5ZM127.5 157L127.329 157.985L127.504 158.016L127.678 157.984L127.5 157ZM104 116.5L104.919 116.107L103.001 116.454L104 116.5ZM148.5 116.5L149.5 116.48L147.596 116.072L148.5 116.5ZM137 129L136.031 129.249L136.294 130.272L137.301 129.953L137 129ZM127.5 92L128.469 91.7513L127.612 88.4141L126.549 91.6915L127.5 92ZM115.5 129L115.158 129.94L116.132 130.294L116.451 129.309L115.5 129ZM175.687 85.273L166.687 76.773L165.313 78.227L174.313 86.727L175.687 85.273ZM176 165.5V86H174V165.5H176ZM166.64 173.768L175.64 166.268L174.36 164.732L165.36 172.232L166.64 173.768ZM87.5 174H166V172H87.5V174ZM78.3384 166.25L86.8384 173.75L88.1616 172.25L79.6616 164.75L78.3384 166.25ZM78 86V165.5H80V86H78ZM86.7929 76.7929L78.2929 85.2929L79.7071 86.7071L88.2071 78.2071L86.7929 76.7929ZM166 76.5H87.5V78.5H166V76.5ZM127.671 156.015C117.045 154.172 111.237 150.762 108.109 144.812C104.915 138.735 104.388 129.808 104.999 116.546L103.001 116.454C102.393 129.663 102.858 139.121 106.339 145.743C109.887 152.492 116.438 156.097 127.329 157.985L127.671 156.015ZM147.5 116.52C147.763 129.685 147.135 138.742 144.251 144.922C141.436 150.954 136.399 154.37 127.322 156.016L127.678 157.984C137.163 156.264 142.888 152.573 146.063 145.767C149.17 139.109 149.761 129.599 149.5 116.48L147.5 116.52ZM137.301 129.953C140.037 129.088 142.124 127.887 144.013 125.818C145.869 123.787 147.495 120.958 149.404 116.928L147.596 116.072C145.703 120.07 144.18 122.67 142.536 124.47C140.925 126.233 139.163 127.267 136.699 128.047L137.301 129.953ZM126.531 92.2487L136.031 129.249L137.969 128.751L128.469 91.7513L126.531 92.2487ZM116.451 129.309L128.451 92.3085L126.549 91.6915L114.549 128.691L116.451 129.309ZM103.081 116.893C104.641 120.542 106.054 123.242 107.898 125.311C109.766 127.408 112.02 128.797 115.158 129.94L115.842 128.06C112.927 126.999 110.984 125.768 109.391 123.981C107.774 122.166 106.463 119.718 104.919 116.107L103.081 116.893Z" fill="white"/>
</svg>
