<svg width="250" height="250" viewBox="0 0 250 250" fill="none" xmlns="http://www.w3.org/2000/svg">
<path d="M22 127C23.6041 47.2113 45.3279 23.5994 125 23C217.123 23.4947 227.912 55.72 229.5 127C227.028 200.9 207.34 225.694 125 227C47.9507 225.747 22.4047 206.926 22 127Z" stroke="white" stroke-width="8" stroke-linecap="round"/>
<path d="M67.5 65L60 58L56 68.5L94.5 91.5H139.5L176 68.5L172 58L166 65H132L129.5 58H103.5L101 65H67.5Z" fill="white" stroke="white" stroke-width="6" stroke-linecap="round" stroke-linejoin="round"/>
<path d="M102.732 173.526L100.919 183.624L111.91 181.289L110.35 136.469L85.9417 98.6642L46.8212 80.4753L40.1696 89.5311L49.3049 90.7749L67.7467 119.339L63.2219 125.236L77.3245 147.079L84.5613 145.382L102.732 173.526Z" fill="white" stroke="white" stroke-width="6" stroke-linecap="round" stroke-linejoin="round"/>
<path d="M131.501 173.526L133.314 183.624L122.323 181.289L123.883 136.469L148.291 98.6642L187.411 80.4753L194.063 89.5311L184.928 90.7749L166.486 119.339L171.011 125.236L156.908 147.079L149.671 145.382L131.501 173.526Z" fill="white" stroke="white" stroke-width="6" stroke-linecap="round" stroke-linejoin="round"/>
<path d="M173.5 191.5C173.5 193.985 175.515 196 178 196C180.485 196 182.5 193.985 182.5 191.5H173.5ZM178 129L152.019 174H203.981L178 129ZM182.5 191.5V169.5H173.5V191.5H182.5Z" fill="white"/>
</svg>
