<svg width="250" height="250" viewBox="0 0 250 250" fill="none" xmlns="http://www.w3.org/2000/svg">
<path d="M22 127C23.6041 47.2113 45.3279 23.5994 125 23C217.123 23.4947 227.912 55.72 229.5 127C227.028 200.9 207.34 225.694 125 227C47.9507 225.747 22.4047 206.926 22 127Z" stroke="white" stroke-width="8" stroke-linecap="round"/>
<path d="M98 190L41 131L53 123L48 113.5L60.5 104L68.5 108.5L93.5 85H112.5L119.5 92L98 113.5L116 131L139 108.5L144.5 113.5V141L121.5 164L125.5 170.5L116 179.5L110.5 176.5L98 190Z" fill="white" stroke="white" stroke-width="5" stroke-linecap="round" stroke-linejoin="round"/>
<path d="M115 114.5L173.5 58" stroke="white" stroke-width="11" stroke-linecap="round" stroke-linejoin="round"/>
<path d="M166 197C166 199.485 168.015 201.5 170.5 201.5C172.985 201.5 175 199.485 175 197H166ZM170.5 134L144.519 179H196.481L170.5 134ZM175 197V174.5H166V197H175Z" fill="white"/>
</svg>
