<svg width="250" height="250" viewBox="0 0 250 250" fill="none" xmlns="http://www.w3.org/2000/svg">
<path d="M22 127C23.6041 47.2113 45.3279 23.5994 125 23C217.123 23.4947 227.912 55.72 229.5 127C227.028 200.9 207.34 225.694 125 227C47.9507 225.747 22.4047 206.926 22 127Z" stroke="white" stroke-width="8" stroke-linecap="round"/>
<path d="M95.5 212L38.5 153L50.5 145L45.5 135.5L58 126L66 130.5L91 107H110L117 114L95.5 135.5L113.5 153L136.5 130.5L142 135.5V163L119 186L123 192.5L113.5 201.5L108 198.5L95.5 212Z" fill="white" stroke="white" stroke-width="5" stroke-linecap="round" stroke-linejoin="round"/>
<path d="M112.5 136.5L184 67" stroke="white" stroke-width="11" stroke-linecap="round" stroke-linejoin="round"/>
<path d="M187.5 125.5L189.5 84.5L149.5 128L175 115L187.5 125.5Z" fill="white" stroke="white" stroke-width="5" stroke-linecap="round" stroke-linejoin="round"/>
<path d="M163.5 59L119.5 102L133 76L122.5 61L163.5 59Z" fill="white" stroke="white" stroke-width="5" stroke-linecap="round" stroke-linejoin="round"/>
</svg>
