<svg width="250" height="250" viewBox="0 0 250 250" fill="none" xmlns="http://www.w3.org/2000/svg">
<path d="M22 127C23.6041 47.2113 45.3279 23.5994 125 23C217.123 23.4947 227.912 55.72 229.5 127C227.028 200.9 207.34 225.694 125 227C47.9507 225.747 22.4047 206.926 22 127Z" stroke="white" stroke-width="8" stroke-linecap="round"/>
<path d="M72 143.5L39 119H102.5L116.5 102H141V127.5L124.5 140.5V208.5L100 174H72V143.5Z" fill="white" stroke="white" stroke-width="5" stroke-linecap="round" stroke-linejoin="round"/>
<path d="M103 88.7088C101.734 89.2611 101.156 90.7347 101.709 92.0001C102.261 93.2655 103.735 93.8436 105 93.2912L103 88.7088ZM144.5 93.5L143.088 95.5631C143.184 95.6288 143.285 95.6878 143.389 95.7396L144.5 93.5ZM181.5 93.5L182.752 95.6638C183.106 95.4593 183.404 95.1713 183.62 94.825L181.5 93.5ZM196.5 69.5L171.01 83.0501L195.49 98.3498L196.5 69.5ZM105 93.2912C113.47 89.5942 119.553 87.944 125.138 88.2391C130.669 88.5313 136.06 90.753 143.088 95.5631L145.912 91.4369C138.518 86.3762 132.23 83.6067 125.402 83.246C118.629 82.8882 111.672 84.9235 103 88.7088L105 93.2912ZM143.389 95.7396C153.949 100.978 161.054 102.767 167.071 102.175C173.044 101.587 177.607 98.6415 182.752 95.6638L180.248 91.3362C174.753 94.5164 171.237 96.7408 166.582 97.1987C161.971 97.6523 155.896 96.3623 145.611 91.2604L143.389 95.7396ZM183.62 94.825L186.695 89.905L182.455 87.255L179.38 92.175L183.62 94.825Z" fill="white"/>
<path d="M152.195 139.533C151.661 140.806 152.26 142.272 153.533 142.805C154.806 143.339 156.272 142.74 156.805 141.467L152.195 139.533ZM152 96L149.753 97.0957C149.786 97.1633 149.822 97.2295 149.861 97.2939L152 96ZM152.5 63.5L150.668 61.7989C150.618 61.853 150.57 61.9094 150.525 61.9677L152.5 63.5ZM172 42.5L144.412 50.9984L165.566 70.6413L172 42.5ZM156.805 141.467C161.01 131.442 162.859 123.706 162.311 116.385C161.762 109.053 158.829 102.46 154.139 94.7061L149.861 97.2939C154.406 104.808 156.863 110.594 157.325 116.759C157.788 122.936 156.27 129.815 152.195 139.533L156.805 141.467ZM154.247 94.9043C150.289 86.7867 148.815 81.4913 148.997 77.2448C149.174 73.1154 150.935 69.5971 154.475 65.0323L150.525 61.9677C146.735 66.8538 144.243 71.3773 144.002 77.0311C143.765 82.5677 145.707 88.797 149.753 97.0957L154.247 94.9043ZM154.332 65.2011L158.522 60.689L154.858 57.2867L150.668 61.7989L154.332 65.2011Z" fill="white"/>
</svg>
