<svg width="250" height="250" viewBox="0 0 250 250" fill="none" xmlns="http://www.w3.org/2000/svg">
<path d="M22 127C23.6041 47.2113 45.3279 23.5994 125 23C217.123 23.4947 227.912 55.72 229.5 127C227.028 200.9 207.34 225.694 125 227C47.9507 225.747 22.4047 206.926 22 127Z" stroke="white" stroke-width="8" stroke-linecap="round"/>
<path d="M105 60H80.5L41 104L58 137.5" stroke="white" stroke-width="9" stroke-linecap="round" stroke-linejoin="round"/>
<path d="M143 60H167.5L207 104L190 137.5" stroke="white" stroke-width="9" stroke-linecap="round" stroke-linejoin="round"/>
<path d="M168 173L153.5 192.5H92L79 173" stroke="white" stroke-width="9" stroke-linecap="round" stroke-linejoin="round"/>
<path d="M144 78L124.5 52.5L103.5 78V110.5L48.5 159L103.5 154L124.5 177L147.5 154L199 159L144 110.5V78Z" fill="white" stroke="white" stroke-width="9" stroke-linecap="round" stroke-linejoin="round"/>
</svg>
