<svg width="250" height="250" viewBox="0 0 250 250" fill="none" xmlns="http://www.w3.org/2000/svg">
<path d="M22 127C23.6041 47.2113 45.3279 23.5994 125 23C217.123 23.4947 227.912 55.72 229.5 127C227.028 200.9 207.34 225.694 125 227C47.9507 225.747 22.4047 206.926 22 127Z" stroke="white" stroke-width="8" stroke-linecap="round"/>
<path d="M37 102H52.5L59 87.5L69 113L86 58.5L101.5 133L118.5 76L130 102L138.5 92.5H205" stroke="white" stroke-width="5" stroke-linecap="round" stroke-linejoin="round"/>
<path d="M206 160.5H190.5L184 146L174 171.5L157 117L141.5 191.5L124.5 134.5L113 160.5L104.5 151H38" stroke="white" stroke-width="5" stroke-linecap="round" stroke-linejoin="round"/>
</svg>
