<svg width="250" height="250" viewBox="0 0 250 250" fill="none" xmlns="http://www.w3.org/2000/svg">
<path d="M22 127C23.6041 47.2113 45.3279 23.5994 125 23C217.123 23.4947 227.912 55.72 229.5 127C227.028 200.9 207.34 225.694 125 227C47.9507 225.747 22.4047 206.926 22 127Z" stroke="white" stroke-width="8" stroke-linecap="round"/>
<path d="M213 91.5H188M188 91.5V78.5L173 64H82L67.5 78.5V91.5M188 91.5V124.5M67.5 91.5H44M67.5 91.5V124.5M44 124.5H67.5M67.5 124.5V157.5M188 124.5H213M188 124.5V157.5M213 157.5H188M188 157.5V172L173 185.5H82L67.5 172V157.5M67.5 157.5H44" stroke="white" stroke-width="9" stroke-linejoin="round"/>
<path fill-rule="evenodd" clip-rule="evenodd" d="M175.5 86.5L167 78H89L79.5 86.5V162.5L89 172H122.5V132.528C119.212 130.626 117 127.072 117 123C117 116.925 121.925 112 128 112C134.075 112 139 116.925 139 123C139 127.072 136.788 130.626 133.5 132.528V172H167L175.5 162.5V86.5ZM143.5 107.5L141.5 114.5C144.75 117.07 145.85 118.968 146 123.5C145.967 128.024 145.153 130.095 141.5 132.5L143.5 138.5C148.097 134.517 150.302 131.91 150.5 123.5C150.027 114.885 148.515 111.361 143.5 107.5ZM152 105.5L154.333 96C162.691 102.434 165.212 108.308 166 122.667C165.67 136.684 161.994 141.029 154.333 147.667L152 139.5C158.089 135.492 158.445 130.207 158.5 122.667C158.25 115.114 157.417 109.784 152 105.5ZM112.5 108.5L114.5 115.5C111.25 118.07 110.15 119.968 110 124.5C110.033 129.024 110.847 131.095 114.5 133.5L112.5 139.5C107.903 135.517 105.698 132.91 105.5 124.5C105.973 115.885 107.485 112.361 112.5 108.5ZM104 106.5L101.667 97C93.309 103.434 90.7881 109.308 90 123.667C90.33 137.684 94.0056 142.029 101.667 148.667L104 140.5C97.9112 136.492 97.5546 131.207 97.5 123.667C97.7499 116.114 98.5833 110.784 104 106.5Z" fill="white"/>
</svg>
