<svg width="250" height="250" viewBox="0 0 250 250" fill="none" xmlns="http://www.w3.org/2000/svg">
<path d="M22 127C23.6041 47.2113 45.3279 23.5994 125 23C217.123 23.4947 227.912 55.72 229.5 127C227.028 200.9 207.34 225.694 125 227C47.9507 225.747 22.4047 206.926 22 127Z" stroke="white" stroke-width="8" stroke-linecap="round"/>
<mask id="path-2-inside-1_1_2" fill="white">
<path fill-rule="evenodd" clip-rule="evenodd" d="M125.5 202C168.302 202 203 167.302 203 124.5C203 81.6979 168.302 47 125.5 47C82.6979 47 48 81.6979 48 124.5C48 167.302 82.6979 202 125.5 202ZM80 79.5H168.5V98H80V79.5ZM168.5 152H80V170.5H168.5V152ZM185 117V132.5H64.5V117H185Z"/>
</mask>
<path fill-rule="evenodd" clip-rule="evenodd" d="M125.5 202C168.302 202 203 167.302 203 124.5C203 81.6979 168.302 47 125.5 47C82.6979 47 48 81.6979 48 124.5C48 167.302 82.6979 202 125.5 202ZM80 79.5H168.5V98H80V79.5ZM168.5 152H80V170.5H168.5V152ZM185 117V132.5H64.5V117H185Z" fill="white"/>
<path d="M168.5 79.5H169.5V78.5H168.5V79.5ZM80 79.5V78.5H79V79.5H80ZM168.5 98V99H169.5V98H168.5ZM80 98H79V99H80V98ZM80 152V151H79V152H80ZM168.5 152H169.5V151H168.5V152ZM80 170.5H79V171.5H80V170.5ZM168.5 170.5V171.5H169.5V170.5H168.5ZM185 132.5V133.5H186V132.5H185ZM185 117H186V116H185V117ZM64.5 132.5H63.5V133.5H64.5V132.5ZM64.5 117V116H63.5V117H64.5ZM202 124.5C202 166.75 167.75 201 125.5 201V203C168.854 203 204 167.854 204 124.5H202ZM125.5 48C167.75 48 202 82.2502 202 124.5H204C204 81.1456 168.854 46 125.5 46V48ZM49 124.5C49 82.2502 83.2502 48 125.5 48V46C82.1456 46 47 81.1456 47 124.5H49ZM125.5 201C83.2502 201 49 166.75 49 124.5H47C47 167.854 82.1456 203 125.5 203V201ZM168.5 78.5H80V80.5H168.5V78.5ZM169.5 98V79.5H167.5V98H169.5ZM80 99H168.5V97H80V99ZM79 79.5V98H81V79.5H79ZM80 153H168.5V151H80V153ZM81 170.5V152H79V170.5H81ZM168.5 169.5H80V171.5H168.5V169.5ZM167.5 152V170.5H169.5V152H167.5ZM186 132.5V117H184V132.5H186ZM64.5 133.5H185V131.5H64.5V133.5ZM63.5 117V132.5H65.5V117H63.5ZM185 116H64.5V118H185V116Z" fill="white" mask="url(#path-2-inside-1_1_2)"/>
</svg>
