<svg width="250" height="250" viewBox="0 0 250 250" fill="none" xmlns="http://www.w3.org/2000/svg">
<path d="M22 127C23.6041 47.2113 45.3279 23.5994 125 23C217.123 23.4947 227.912 55.72 229.5 127C227.028 200.9 207.34 225.694 125 227C47.9507 225.747 22.4047 206.926 22 127Z" stroke="white" stroke-width="8" stroke-linecap="round"/>
<path d="M122.228 129.5C54.4091 128.821 49.5937 109.1 66.9148 96C41.9775 103.02 24.4223 125.377 65.728 140.5L66.0087 140.577C75.3728 143.141 90.6467 147.324 122.228 147C155.865 147.2 168.826 143.518 179.228 140.5C217.328 125.15 199.218 103.345 177.415 96C189.791 106.056 191.796 125.409 122.228 129.5Z" fill="white" stroke="white" stroke-width="2" stroke-linecap="round" stroke-linejoin="round"/>
<path d="M125.91 171.295C76.7247 170.803 73.2324 156.5 85.7944 147C67.7089 152.091 54.9772 168.305 84.9337 179.273L85.1372 179.329C91.9285 181.189 103.006 184.222 125.91 183.987C150.304 184.132 159.704 181.462 167.248 179.273C194.88 168.141 181.745 152.327 165.933 147C174.909 154.293 176.363 168.329 125.91 171.295Z" fill="white" stroke="white" stroke-width="1.45047" stroke-linecap="round" stroke-linejoin="round"/>
<ellipse cx="125.5" cy="68.5" rx="36.5" ry="35.5" fill="white"/>
<path d="M114 199V102H135.5V199L145.5 193.5C139.315 209.912 135.296 217.161 125 219C112.826 217.865 109.983 209.175 105 193.5L114 199Z" fill="white" stroke="white" stroke-width="2" stroke-linejoin="round"/>
</svg>
