<svg width="250" height="250" viewBox="0 0 250 250" fill="none" xmlns="http://www.w3.org/2000/svg">
<path d="M22 127C23.6041 47.2113 45.3279 23.5994 125 23C217.123 23.4947 227.912 55.72 229.5 127C227.028 200.9 207.34 225.694 125 227C47.9507 225.747 22.4047 206.926 22 127Z" stroke="white" stroke-width="8" stroke-linecap="round"/>
<circle cx="99.027" cy="100.135" r="42.0946" stroke="white" stroke-width="5.67568"/>
<path d="M98.554 50V77.4324" stroke="white" stroke-width="8.51351" stroke-linecap="round" stroke-linejoin="round"/>
<path d="M151.054 102.5H124.095" stroke="white" stroke-width="8.51351" stroke-linecap="round" stroke-linejoin="round"/>
<path d="M73.9595 102.5H47" stroke="white" stroke-width="8.51351" stroke-linecap="round" stroke-linejoin="round"/>
<path d="M99.027 127.095V155" stroke="white" stroke-width="8.51351" stroke-linecap="round" stroke-linejoin="round"/>
<circle cx="99" cy="102" r="12" fill="white"/>
<circle cx="166" cy="159.618" r="30.7455" stroke="white" stroke-width="4.14545"/>
<path d="M165.655 123V143.036" stroke="white" stroke-width="6.21818" stroke-linecap="round" stroke-linejoin="round"/>
<path d="M204 161.345H184.309" stroke="white" stroke-width="6.21818" stroke-linecap="round" stroke-linejoin="round"/>
<path d="M147.691 161.345H128" stroke="white" stroke-width="6.21818" stroke-linecap="round" stroke-linejoin="round"/>
<path d="M166 179.309V199.691" stroke="white" stroke-width="6.21818" stroke-linecap="round" stroke-linejoin="round"/>
<circle cx="165.98" cy="160.98" r="8.76467" fill="white"/>
</svg>
