<svg width="250" height="250" viewBox="0 0 250 250" fill="none" xmlns="http://www.w3.org/2000/svg">
<path d="M22 127C23.6041 47.2113 45.3279 23.5994 125 23C217.123 23.4947 227.912 55.72 229.5 127C227.028 200.9 207.34 225.694 125 227C47.9507 225.747 22.4047 206.926 22 127Z" stroke="white" stroke-width="8" stroke-linecap="round"/>
<path d="M148 65.5L129.5 44L109.5 65.5V88.5L69 130.5H113L129.5 145.5L144.5 130.5H188L148 88.5V65.5Z" fill="white" stroke="white" stroke-width="9" stroke-linecap="round" stroke-linejoin="round"/>
<path d="M94 157.5C121.542 176.012 137.153 178.158 165.5 157.5M72.5 181C115.493 207.623 139.885 212.258 184.5 181" stroke="white" stroke-width="9" stroke-linecap="round" stroke-linejoin="round"/>
</svg>
