<svg width="250" height="250" viewBox="0 0 250 250" fill="none" xmlns="http://www.w3.org/2000/svg">
<path d="M22 127C23.6041 47.2113 45.3279 23.5994 125 23C217.123 23.4947 227.912 55.72 229.5 127C227.028 200.9 207.34 225.694 125 227C47.9507 225.747 22.4047 206.926 22 127Z" stroke="white" stroke-width="8" stroke-linecap="round"/>
<path d="M201.5 139.007H157V151.507L164 154.007L132 176.507V211.507L145 200.007V183.507H168.5L183 176.507L171 167.507V161.507L201.5 139.007Z" fill="white" stroke="white" stroke-width="4" stroke-linejoin="round"/>
<path d="M51 139.507H95.5V152.007L88.5 154.507L120.5 177.007V212.007L107.5 200.507V184.007H84L69.5 177.007L81.5 168.007V162.007L51 139.507Z" fill="white" stroke="white" stroke-width="4" stroke-linejoin="round"/>
<path fill-rule="evenodd" clip-rule="evenodd" d="M125.861 37L113.2 88.8575L94.7998 79.7792L98.4168 101.284L78.7114 101.913C79.3681 102.882 80.014 103.836 80.6499 104.775C97.0836 129.048 106.875 143.51 125.62 151.029C140.857 146.849 153.245 133.215 173.274 111.171C174.573 109.741 175.904 108.276 177.271 106.775L156.82 102.194L164.178 83.3214L142.874 87.5922L125.861 37ZM126.619 75.4449L119.855 110L110.157 108.262L113.078 122.394L103.381 120.657C113.498 135.582 115.306 136.407 126.481 140.889C135.389 138.446 137.884 135.703 149.353 123.095C149.873 122.523 150.412 121.931 150.97 121.318L138.668 119.953L141.601 105.306L132.861 109L126.619 75.4449Z" fill="white"/>
<path d="M113.2 88.8575L112.979 89.3059C113.115 89.373 113.274 89.3748 113.412 89.3106C113.549 89.2465 113.65 89.1235 113.686 88.9761L113.2 88.8575ZM125.861 37L126.334 36.8406C126.264 36.6297 126.062 36.491 125.839 36.5005C125.617 36.5099 125.428 36.6652 125.375 36.8814L125.861 37ZM94.7998 79.7792L95.021 79.3308C94.8527 79.2477 94.652 79.266 94.5014 79.378C94.3508 79.49 94.2756 79.677 94.3067 79.8621L94.7998 79.7792ZM98.4168 101.284L98.4327 101.784C98.577 101.779 98.7122 101.713 98.8036 101.601C98.8951 101.489 98.9338 101.344 98.9098 101.201L98.4168 101.284ZM78.7114 101.913L78.6954 101.414C78.5133 101.419 78.3487 101.524 78.2659 101.686C78.1832 101.849 78.1952 102.043 78.2975 102.194L78.7114 101.913ZM80.6499 104.775L80.2359 105.056L80.2359 105.056L80.6499 104.775ZM125.62 151.029L125.433 151.493C125.535 151.534 125.647 151.54 125.752 151.511L125.62 151.029ZM173.274 111.171L173.644 111.507L173.644 111.507L173.274 111.171ZM177.271 106.775L177.64 107.112C177.76 106.98 177.801 106.795 177.748 106.625C177.694 106.455 177.554 106.327 177.38 106.288L177.271 106.775ZM156.82 102.194L156.354 102.012C156.301 102.148 156.31 102.3 156.378 102.429C156.447 102.558 156.568 102.65 156.71 102.682L156.82 102.194ZM164.178 83.3214L164.644 83.503C164.71 83.3328 164.678 83.1399 164.561 82.9999C164.443 82.86 164.259 82.7953 164.079 82.8312L164.178 83.3214ZM142.874 87.5922L142.4 87.7515C142.48 87.9902 142.725 88.1319 142.972 88.0824L142.874 87.5922ZM119.855 110L119.767 110.492C120.035 110.54 120.293 110.364 120.346 110.096L119.855 110ZM126.619 75.4449L127.111 75.3535C127.067 75.1176 126.861 74.9461 126.621 74.9449C126.381 74.9438 126.174 75.1134 126.128 75.3489L126.619 75.4449ZM110.157 108.262L110.246 107.77C110.082 107.741 109.915 107.794 109.799 107.913C109.683 108.032 109.634 108.201 109.668 108.363L110.157 108.262ZM113.078 122.394L112.99 122.886C113.154 122.916 113.321 122.862 113.437 122.743C113.552 122.624 113.602 122.456 113.568 122.293L113.078 122.394ZM103.381 120.657L103.469 120.164C103.271 120.129 103.071 120.216 102.962 120.384C102.852 120.553 102.854 120.771 102.967 120.937L103.381 120.657ZM126.481 140.889L126.295 141.353C126.396 141.394 126.508 141.4 126.613 141.372L126.481 140.889ZM149.353 123.095L148.983 122.758L148.983 122.758L149.353 123.095ZM150.97 121.318L151.34 121.654C151.467 121.515 151.505 121.317 151.438 121.141C151.372 120.965 151.212 120.842 151.025 120.821L150.97 121.318ZM138.668 119.953L138.178 119.855C138.15 119.992 138.181 120.135 138.264 120.248C138.347 120.361 138.473 120.435 138.613 120.45L138.668 119.953ZM141.601 105.306L142.091 105.405C142.128 105.223 142.061 105.036 141.917 104.919C141.774 104.802 141.577 104.774 141.406 104.846L141.601 105.306ZM132.861 109L132.369 109.092C132.397 109.241 132.491 109.369 132.624 109.441C132.757 109.512 132.916 109.52 133.055 109.461L132.861 109ZM113.686 88.9761L126.346 37.1186L125.375 36.8814L112.714 88.7389L113.686 88.9761ZM94.5786 80.2276L112.979 89.3059L113.421 88.4091L95.021 79.3308L94.5786 80.2276ZM98.9098 101.201L95.2929 79.6963L94.3067 79.8621L97.9237 101.367L98.9098 101.201ZM78.7273 102.413L98.4327 101.784L98.4008 100.785L78.6954 101.414L78.7273 102.413ZM81.064 104.495C80.428 103.556 79.7821 102.602 79.1252 101.633L78.2975 102.194C78.9541 103.163 79.6 104.116 80.2359 105.056L81.064 104.495ZM125.806 150.565C107.229 143.113 97.5193 128.8 81.064 104.495L80.2359 105.056C96.6478 129.296 106.52 143.907 125.433 151.493L125.806 150.565ZM172.904 110.835C162.883 121.864 154.798 130.761 147.317 137.426C139.841 144.087 133.002 148.485 125.487 150.547L125.752 151.511C133.475 149.393 140.448 144.884 147.982 138.172C155.512 131.464 163.636 122.522 173.644 111.507L172.904 110.835ZM176.901 106.439C175.534 107.939 174.203 109.405 172.904 110.835L173.644 111.507C174.943 110.077 176.274 108.612 177.64 107.112L176.901 106.439ZM156.71 102.682L177.161 107.263L177.38 106.288L156.929 101.706L156.71 102.682ZM163.712 83.1398L156.354 102.012L157.285 102.376L164.644 83.503L163.712 83.1398ZM142.972 88.0824L164.276 83.8117L164.079 82.8312L142.776 87.1019L142.972 88.0824ZM125.387 37.1594L142.4 87.7515L143.348 87.4328L126.334 36.8406L125.387 37.1594ZM120.346 110.096L127.11 75.541L126.128 75.3489L119.364 109.904L120.346 110.096ZM110.069 108.754L119.767 110.492L119.943 109.508L110.246 107.77L110.069 108.754ZM113.568 122.293L110.647 108.161L109.668 108.363L112.589 122.495L113.568 122.293ZM103.293 121.149L112.99 122.886L113.167 121.902L103.469 120.164L103.293 121.149ZM126.667 140.425C121.065 138.178 117.898 136.878 114.857 134.307C111.804 131.726 108.859 127.846 103.795 120.376L102.967 120.937C108.021 128.392 111.038 132.387 114.212 135.071C117.397 137.764 120.722 139.118 126.295 141.353L126.667 140.425ZM148.983 122.758C143.236 129.076 139.776 132.878 136.642 135.415C133.538 137.928 130.755 139.198 126.348 140.407L126.613 141.372C131.115 140.137 134.033 138.814 137.271 136.193C140.479 133.596 144 129.722 149.723 123.431L148.983 122.758ZM150.601 120.981C150.042 121.594 149.503 122.187 148.983 122.758L149.723 123.431C150.243 122.859 150.782 122.268 151.34 121.654L150.601 120.981ZM138.613 120.45L150.915 121.815L151.025 120.821L138.723 119.456L138.613 120.45ZM141.111 105.208L138.178 119.855L139.158 120.051L142.091 105.405L141.111 105.208ZM133.055 109.461L141.796 105.767L141.406 104.846L132.666 108.54L133.055 109.461ZM126.127 75.5364L132.369 109.092L133.352 108.909L127.111 75.3535L126.127 75.5364Z" fill="white"/>
</svg>
