<svg width="250" height="250" viewBox="0 0 250 250" fill="none" xmlns="http://www.w3.org/2000/svg">
<path d="M22 127C23.6041 47.2113 45.3279 23.5994 125 23C217.123 23.4947 227.912 55.72 229.5 127C227.028 200.9 207.34 225.694 125 227C47.9507 225.747 22.4047 206.926 22 127Z" stroke="white" stroke-width="8" stroke-linecap="round"/>
<path d="M206.5 83H168.5L156 97H93L82 83H43" stroke="white" stroke-width="17" stroke-linecap="round" stroke-linejoin="round"/>
<path d="M184 113.5H159L165 126L134.5 118.5V193.5H154V141L209 151L184 113.5Z" fill="white"/>
<path d="M184 113.5H159L165 126L134.5 118.5V193.5H154V141L209 151L184 113.5Z" fill="white"/>
<path d="M184 113.5H159L165 126L134.5 118.5V193.5H154V141L209 151L184 113.5Z" stroke="white" stroke-width="4" stroke-linecap="round" stroke-linejoin="round"/>
<path d="M69.5 114H94.5L88.5 126.5L119 119V194H99.5V141.5L44.5 151.5L69.5 114Z" fill="white"/>
<path d="M69.5 114H94.5L88.5 126.5L119 119V194H99.5V141.5L44.5 151.5L69.5 114Z" fill="white"/>
<path d="M69.5 114H94.5L88.5 126.5L119 119V194H99.5V141.5L44.5 151.5L69.5 114Z" stroke="white" stroke-width="4" stroke-linecap="round" stroke-linejoin="round"/>
</svg>
