<svg width="250" height="250" viewBox="0 0 250 250" fill="none" xmlns="http://www.w3.org/2000/svg">
<path d="M22 127C23.6041 47.2113 45.3279 23.5994 125 23C217.123 23.4947 227.912 55.72 229.5 127C227.028 200.9 207.34 225.694 125 227C47.9507 225.747 22.4047 206.926 22 127Z" stroke="white" stroke-width="8" stroke-linecap="round"/>
<path d="M108 93.5V108H92L85.5 100H50L68 85.5V68.5H83L100.5 51.5V87L108 93.5Z" fill="white" stroke="white" stroke-width="9" stroke-linecap="round" stroke-linejoin="round"/>
<path d="M150 158.5V144H166L172.5 152H208L190 166.5V183.5H175L157.5 200.5V165L150 158.5Z" fill="white" stroke="white" stroke-width="9" stroke-linecap="round" stroke-linejoin="round"/>
<path d="M130 94C148.78 93.8695 155.376 99.4232 156.5 123M130 71.5C167.627 71.2535 180.173 80.9433 181 123M130 46.5C183.208 45.9792 200.303 60.9979 201.5 123" stroke="white" stroke-width="9" stroke-linecap="round" stroke-linejoin="round"/>
<path d="M125.5 154C106.72 154.131 100.124 148.577 99 125M125.5 176.5C87.8733 176.747 75.327 167.057 74.5 125M125.5 201.5C72.2922 202.021 55.1971 187.002 54 125" stroke="white" stroke-width="9" stroke-linecap="round" stroke-linejoin="round"/>
<circle cx="126" cy="125" r="14" fill="white"/>
</svg>
