<svg width="250" height="250" viewBox="0 0 250 250" fill="none" xmlns="http://www.w3.org/2000/svg">
<path d="M22 127C23.6041 47.2113 45.3279 23.5994 125 23C217.123 23.4947 227.912 55.72 229.5 127C227.028 200.9 207.34 225.694 125 227C47.9507 225.747 22.4047 206.926 22 127Z" stroke="white" stroke-width="8" stroke-linecap="round"/>
<path fill-rule="evenodd" clip-rule="evenodd" d="M126 50L184 85.5V152L126 186L68.5 152V85.5L126 50ZM165.806 111.418L154.265 99.0816L126.408 128.133L122.429 124.551L116.459 130.122L112.082 125.347L118.051 120.173L115.265 114.204L143.918 88.3367L133.173 76L108.102 99.0816L101.735 89.9286L89 101.867L94.1735 106.643V132.51L89 137.286L104.52 152.806L108.102 148.827H135.959L139.939 154L151.48 141.663L143.122 132.51L165.806 111.418ZM110.49 136.49L106.112 131.316L98.1531 139.276L102.531 144.051L110.49 136.49Z" fill="white"/>
<path d="M184 85.5H185C185 85.1519 184.819 84.8288 184.522 84.6471L184 85.5ZM126 50L126.522 49.1471C126.2 48.9502 125.795 48.951 125.475 49.1491L126 50ZM184 152L184.506 152.863C184.812 152.683 185 152.355 185 152H184ZM126 186L125.491 186.861C125.804 187.046 126.192 187.046 126.506 186.863L126 186ZM68.5 152H67.5C67.5 152.354 67.6867 152.681 67.991 152.861L68.5 152ZM68.5 85.5L67.9747 84.6491C67.6796 84.8313 67.5 85.1533 67.5 85.5H68.5ZM154.265 99.0816L154.996 98.3985C154.808 98.1979 154.546 98.0833 154.271 98.0817C153.997 98.08 153.734 98.1913 153.544 98.3895L154.265 99.0816ZM165.806 111.418L166.487 112.151C166.682 111.97 166.796 111.719 166.806 111.453C166.815 111.188 166.718 110.929 166.536 110.735L165.806 111.418ZM126.408 128.133L125.739 128.876C126.141 129.237 126.756 129.215 127.13 128.825L126.408 128.133ZM122.429 124.551L123.098 123.808C122.712 123.461 122.125 123.466 121.746 123.82L122.429 124.551ZM116.459 130.122L115.722 130.798C115.902 130.995 116.154 131.111 116.42 131.122C116.687 131.132 116.946 131.036 117.142 130.854L116.459 130.122ZM112.082 125.347L111.427 124.591C111.223 124.768 111.099 125.02 111.083 125.29C111.068 125.559 111.162 125.824 111.344 126.023L112.082 125.347ZM118.051 120.173L118.706 120.929C119.044 120.637 119.146 120.155 118.957 119.751L118.051 120.173ZM115.265 114.204L114.595 113.462C114.269 113.756 114.173 114.229 114.359 114.627L115.265 114.204ZM143.918 88.3367L144.588 89.079C144.993 88.7136 145.031 88.0912 144.672 87.68L143.918 88.3367ZM133.173 76L133.928 75.3432C133.75 75.1396 133.498 75.0164 133.229 75.0015C132.959 74.9867 132.695 75.0814 132.496 75.2643L133.173 76ZM108.102 99.0816L107.281 99.6527C107.446 99.8899 107.706 100.044 107.993 100.076C108.28 100.107 108.567 100.013 108.779 99.8173L108.102 99.0816ZM101.735 89.9286L102.556 89.3575C102.39 89.119 102.128 88.9645 101.839 88.9341C101.551 88.9036 101.263 89.0004 101.051 89.199L101.735 89.9286ZM89 101.867L88.3161 101.138C88.1134 101.328 87.9989 101.593 88 101.871C88.0011 102.149 88.1176 102.414 88.3217 102.602L89 101.867ZM94.1735 106.643H95.1735C95.1735 106.364 95.0568 106.097 94.8517 105.908L94.1735 106.643ZM94.1735 132.51L94.8517 133.245C95.0568 133.056 95.1735 132.789 95.1735 132.51H94.1735ZM89 137.286L88.3217 136.551C88.1217 136.736 88.0056 136.994 88.0002 137.266C87.9948 137.538 88.1005 137.8 88.2929 137.993L89 137.286ZM104.52 152.806L103.813 153.513C104.007 153.707 104.272 153.813 104.547 153.806C104.821 153.799 105.08 153.679 105.264 153.475L104.52 152.806ZM108.102 148.827V147.827C107.819 147.827 107.548 147.947 107.359 148.158L108.102 148.827ZM135.959 148.827L136.752 148.217C136.563 147.971 136.27 147.827 135.959 147.827V148.827ZM139.939 154L139.146 154.61C139.325 154.842 139.597 154.985 139.891 154.999C140.184 155.013 140.468 154.898 140.669 154.683L139.939 154ZM151.48 141.663L152.21 142.346C152.566 141.965 152.57 141.374 152.218 140.989L151.48 141.663ZM143.122 132.51L142.442 131.778C142.04 132.152 142.014 132.779 142.384 133.184L143.122 132.51ZM106.112 131.316L106.876 130.67C106.695 130.457 106.433 130.329 106.154 130.317C105.874 130.306 105.603 130.411 105.405 130.609L106.112 131.316ZM110.49 136.49L111.179 137.215C111.563 136.85 111.596 136.248 111.253 135.844L110.49 136.49ZM98.1531 139.276L97.446 138.568C97.0674 138.947 97.0541 139.557 97.4159 139.951L98.1531 139.276ZM102.531 144.051L101.793 144.727C101.975 144.925 102.228 145.041 102.496 145.05C102.764 145.06 103.025 144.961 103.219 144.776L102.531 144.051ZM184.522 84.6471L126.522 49.1471L125.478 50.8529L183.478 86.3529L184.522 84.6471ZM185 152V85.5H183V152H185ZM126.506 186.863L184.506 152.863L183.494 151.137L125.494 185.137L126.506 186.863ZM67.991 152.861L125.491 186.861L126.509 185.139L69.009 151.139L67.991 152.861ZM67.5 85.5V152H69.5V85.5H67.5ZM125.475 49.1491L67.9747 84.6491L69.0253 86.3509L126.525 50.8509L125.475 49.1491ZM153.535 99.7648L165.076 112.102L166.536 110.735L154.996 98.3985L153.535 99.7648ZM127.13 128.825L154.987 99.7738L153.544 98.3895L125.686 127.441L127.13 128.825ZM121.76 125.294L125.739 128.876L127.077 127.389L123.098 123.808L121.76 125.294ZM117.142 130.854L123.111 125.282L121.746 123.82L115.777 129.391L117.142 130.854ZM111.344 126.023L115.722 130.798L117.196 129.447L112.819 124.671L111.344 126.023ZM117.396 119.418L111.427 124.591L112.737 126.103L118.706 120.929L117.396 119.418ZM114.359 114.627L117.145 120.596L118.957 119.751L116.171 113.781L114.359 114.627ZM143.248 87.5945L114.595 113.462L115.935 114.946L144.588 89.079L143.248 87.5945ZM132.419 76.6568L143.164 88.9935L144.672 87.68L133.928 75.3432L132.419 76.6568ZM108.779 99.8173L133.851 76.7357L132.496 75.2643L107.425 98.3459L108.779 99.8173ZM100.914 90.4996L107.281 99.6527L108.923 98.5106L102.556 89.3575L100.914 90.4996ZM89.6839 102.597L102.419 90.6581L101.051 89.199L88.3161 101.138L89.6839 102.597ZM94.8517 105.908L89.6783 101.133L88.3217 102.602L93.4952 107.378L94.8517 105.908ZM95.1735 132.51V106.643H93.1735V132.51H95.1735ZM89.6783 138.021L94.8517 133.245L93.4952 131.775L88.3217 136.551L89.6783 138.021ZM105.228 152.099L89.7071 136.579L88.2929 137.993L103.813 153.513L105.228 152.099ZM107.359 148.158L103.777 152.137L105.264 153.475L108.845 149.495L107.359 148.158ZM135.959 147.827H108.102V149.827H135.959V147.827ZM140.731 153.39L136.752 148.217L135.167 149.436L139.146 154.61L140.731 153.39ZM150.749 140.98L139.209 153.317L140.669 154.683L152.21 142.346L150.749 140.98ZM142.384 133.184L150.741 142.338L152.218 140.989L143.861 131.836L142.384 133.184ZM165.125 110.686L142.442 131.778L143.803 133.243L166.487 112.151L165.125 110.686ZM105.349 131.962L109.726 137.136L111.253 135.844L106.876 130.67L105.349 131.962ZM98.8602 139.983L106.819 132.023L105.405 130.609L97.446 138.568L98.8602 139.983ZM103.268 143.375L98.8902 138.6L97.4159 139.951L101.793 144.727L103.268 143.375ZM109.801 135.765L101.842 143.326L103.219 144.776L111.179 137.215L109.801 135.765Z" fill="white"/>
<path d="M164.5 54.5L199.5 74.5V117.5" stroke="white" stroke-width="13" stroke-linecap="round" stroke-linejoin="round"/>
<path d="M86 54L51 74V117" stroke="white" stroke-width="13" stroke-linecap="round" stroke-linejoin="round"/>
<path d="M162.066 184.141L127.379 204.68L90 183.425" stroke="white" stroke-width="13" stroke-linecap="round" stroke-linejoin="round"/>
</svg>
