<svg width="250" height="250" viewBox="0 0 250 250" fill="none" xmlns="http://www.w3.org/2000/svg">
<path d="M22 127C23.6041 47.2113 45.3279 23.5994 125 23C217.123 23.4947 227.912 55.72 229.5 127C227.028 200.9 207.34 225.694 125 227C47.9507 225.747 22.4047 206.926 22 127Z" stroke="white" stroke-width="8" stroke-linecap="round"/>
<circle cx="124.59" cy="124.59" r="78.5901" stroke="white" stroke-width="8"/>
<path d="M123.721 46.4369V64.4369" stroke="white" stroke-width="8" stroke-linecap="round" stroke-linejoin="round"/>
<path d="M202.459 128.937H185.459" stroke="white" stroke-width="8" stroke-linecap="round" stroke-linejoin="round"/>
<path d="M65.4595 128.937H45.9595" stroke="white" stroke-width="8" stroke-linecap="round" stroke-linejoin="round"/>
<path d="M124.59 186.937V201.437" stroke="white" stroke-width="8" stroke-linecap="round" stroke-linejoin="round"/>
<path fill-rule="evenodd" clip-rule="evenodd" d="M184.459 159.437L142.959 112.437V93.4369L124.959 73.4369L107.459 93.4369V112.437L63.9595 159.437H107.459L124.959 177.937L142.959 159.437H184.459ZM124.459 90.4369L130.959 97.9369V116.937L141.959 128.937H105.959L117.959 116.937V97.9369L124.459 90.4369Z" fill="white"/>
</svg>
