<svg width="250" height="250" viewBox="0 0 250 250" fill="none" xmlns="http://www.w3.org/2000/svg">
<path d="M225.5 96C228.479 105.1 229.365 111.758 229.5 126.5C227.028 200.4 207.34 225.194 125 226.5C47.9507 225.247 22.4047 206.425 22 126.5C23.6041 46.7113 45.3279 23.0994 125 22.5C149.305 22.6661 160.207 24.9751 173 34.5" stroke="white" stroke-width="8" stroke-linecap="round"/>
<path fill-rule="evenodd" clip-rule="evenodd" d="M184 39L205 18.5L226.5 39V66L205 83L184 66V39ZM205 26L187.679 56H202V73C202 74.6569 203.343 76 205 76C206.657 76 208 74.6569 208 73V56H222.321L205 26Z" fill="white"/>
<path d="M226 77L204.5 91.5L184 77" stroke="white" stroke-width="6" stroke-linecap="round" stroke-linejoin="round"/>
<path d="M179 98L157 77L167.5 67.5C181.671 69.1399 185.982 74.4339 189 89.5L179 98Z" fill="white" stroke="white" stroke-width="4" stroke-linejoin="round"/>
<path d="M174 102.5L152 81L79.5 152.5L101.5 175L174 102.5Z" fill="white" stroke="white" stroke-width="4" stroke-linejoin="round"/>
<path d="M97 179.5L75.5 157.5L64 167.5L48 171L56.5 179.5V189.5L66.5 197.5H73.5L85 205.5L87 189.5L97 179.5Z" fill="white" stroke="white" stroke-width="4" stroke-linejoin="round"/>
<path d="M203.5 129.5C203.735 118.039 200.086 117.19 192 118L126 182.5H118V204H136L137.5 193.5L203.5 129.5Z" fill="white" stroke="white" stroke-width="4" stroke-linejoin="round"/>
<path d="M136.5 62.7252C136.735 51.2644 133.086 50.4154 125 51.2252L59 115.725H51V137.225H69L70.5 126.725L136.5 62.7252Z" fill="white" stroke="white" stroke-width="4" stroke-linejoin="round"/>
</svg>
