<svg width="250" height="250" viewBox="0 0 250 250" fill="none" xmlns="http://www.w3.org/2000/svg">
<path d="M225.5 96C228.479 105.1 229.365 111.758 229.5 126.5C227.028 200.4 207.34 225.194 125 226.5C47.9507 225.247 22.4047 206.425 22 126.5C23.6041 46.7113 45.3279 23.0994 125 22.5C149.305 22.6661 160.207 24.9751 173 34.5" stroke="white" stroke-width="8" stroke-linecap="round"/>
<path fill-rule="evenodd" clip-rule="evenodd" d="M184 39L205 18.5L226.5 39V66L205 83L184 66V39ZM205 26L187.679 56H202V73C202 74.6569 203.343 76 205 76C206.657 76 208 74.6569 208 73V56H222.321L205 26Z" fill="white"/>
<path d="M226 77L204.5 91.5L184 77" stroke="white" stroke-width="6" stroke-linecap="round" stroke-linejoin="round"/>
<path d="M174 63H75L56.5 78.5V171L75 190.5H174L194 171V78.5L174 63Z" stroke="white" stroke-width="9" stroke-linejoin="round"/>
<path fill-rule="evenodd" clip-rule="evenodd" d="M170.5 76L180 88.5V125.5H165.5L149 82L132.5 134L117.5 93L103.5 137L94.5 121H68.5V88.5L79.5 76H170.5ZM68.5 134V167L79.5 175.5H170.5L180 167V137H160L149 118.5L132.5 170.5L117.5 129.5L103.5 168.5L88.5 134H68.5Z" fill="white"/>
<path d="M180 88.5H180.5C180.5 88.3907 180.464 88.2845 180.398 88.1975L180 88.5ZM170.5 76L170.898 75.6975C170.804 75.5731 170.656 75.5 170.5 75.5V76ZM180 125.5V126C180.276 126 180.5 125.776 180.5 125.5H180ZM165.5 125.5L165.033 125.677C165.106 125.872 165.292 126 165.5 126V125.5ZM149 82L149.467 81.8227C149.392 81.6237 149.199 81.4943 148.986 81.5002C148.773 81.5061 148.588 81.6459 148.523 81.8488L149 82ZM132.5 134L132.03 134.172C132.104 134.373 132.297 134.505 132.511 134.5C132.725 134.495 132.912 134.355 132.977 134.151L132.5 134ZM117.5 93L117.97 92.8282C117.896 92.6274 117.703 92.4956 117.489 92.5001C117.276 92.5047 117.088 92.6447 117.024 92.8484L117.5 93ZM103.5 137L103.064 137.245C103.162 137.419 103.353 137.518 103.551 137.497C103.749 137.477 103.916 137.341 103.976 137.152L103.5 137ZM94.5 121L94.9358 120.755C94.8472 120.597 94.6806 120.5 94.5 120.5V121ZM68.5 121H68C68 121.276 68.2239 121.5 68.5 121.5V121ZM68.5 88.5L68.1246 88.1697C68.0443 88.261 68 88.3784 68 88.5H68.5ZM79.5 76V75.5C79.3563 75.5 79.2196 75.5618 79.1246 75.6697L79.5 76ZM68.5 134V133.5C68.2239 133.5 68 133.724 68 134H68.5ZM68.5 167H68C68 167.155 68.0717 167.301 68.1943 167.396L68.5 167ZM79.5 175.5L79.1943 175.896C79.2818 175.963 79.3894 176 79.5 176V175.5ZM170.5 175.5V176C170.623 176 170.742 175.955 170.833 175.873L170.5 175.5ZM180 167L180.333 167.373C180.439 167.278 180.5 167.142 180.5 167H180ZM180 137H180.5C180.5 136.724 180.276 136.5 180 136.5V137ZM160 137L159.57 137.256C159.66 137.407 159.824 137.5 160 137.5V137ZM149 118.5L149.43 118.244C149.329 118.075 149.138 117.981 148.943 118.003C148.747 118.026 148.583 118.161 148.523 118.349L149 118.5ZM132.5 170.5L132.03 170.672C132.104 170.873 132.297 171.005 132.511 171C132.725 170.995 132.912 170.855 132.977 170.651L132.5 170.5ZM117.5 129.5L117.97 129.328C117.897 129.131 117.709 128.999 117.498 129C117.288 129.001 117.101 129.133 117.029 129.331L117.5 129.5ZM103.5 168.5L103.041 168.699C103.123 168.887 103.311 169.006 103.516 169C103.721 168.993 103.901 168.862 103.971 168.669L103.5 168.5ZM88.5 134L88.9585 133.801C88.8792 133.618 88.6991 133.5 88.5 133.5V134ZM180.398 88.1975L170.898 75.6975L170.102 76.3025L179.602 88.8025L180.398 88.1975ZM180.5 125.5V88.5H179.5V125.5H180.5ZM165.5 126H180V125H165.5V126ZM148.533 82.1773L165.033 125.677L165.967 125.323L149.467 81.8227L148.533 82.1773ZM132.977 134.151L149.477 82.1512L148.523 81.8488L132.023 133.849L132.977 134.151ZM117.03 93.1718L132.03 134.172L132.97 133.828L117.97 92.8282L117.03 93.1718ZM103.976 137.152L117.976 93.1516L117.024 92.8484L103.024 136.848L103.976 137.152ZM94.0642 121.245L103.064 137.245L103.936 136.755L94.9358 120.755L94.0642 121.245ZM68.5 121.5H94.5V120.5H68.5V121.5ZM68 88.5V121H69V88.5H68ZM79.1246 75.6697L68.1246 88.1697L68.8754 88.8303L79.8754 76.3303L79.1246 75.6697ZM170.5 75.5H79.5V76.5H170.5V75.5ZM68 134V167H69V134H68ZM68.1943 167.396L79.1943 175.896L79.8057 175.104L68.8057 166.604L68.1943 167.396ZM79.5 176H170.5V175H79.5V176ZM170.833 175.873L180.333 167.373L179.667 166.627L170.167 175.127L170.833 175.873ZM180.5 167V137H179.5V167H180.5ZM180 136.5H160V137.5H180V136.5ZM160.43 136.744L149.43 118.244L148.57 118.756L159.57 137.256L160.43 136.744ZM148.523 118.349L132.023 170.349L132.977 170.651L149.477 118.651L148.523 118.349ZM132.97 170.328L117.97 129.328L117.03 129.672L132.03 170.672L132.97 170.328ZM117.029 129.331L103.029 168.331L103.971 168.669L117.971 129.669L117.029 129.331ZM103.959 168.301L88.9585 133.801L88.0415 134.199L103.041 168.699L103.959 168.301ZM88.5 133.5H68.5V134.5H88.5V133.5Z" fill="white"/>
</svg>
