<svg width="250" height="250" viewBox="0 0 250 250" fill="none" xmlns="http://www.w3.org/2000/svg">
<path d="M225.5 96C228.479 105.1 229.365 111.758 229.5 126.5C227.028 200.4 207.34 225.194 125 226.5C47.9507 225.247 22.4047 206.425 22 126.5C23.6041 46.7113 45.3279 23.0994 125 22.5C149.305 22.6661 160.207 24.9751 173 34.5" stroke="white" stroke-width="8" stroke-linecap="round"/>
<path fill-rule="evenodd" clip-rule="evenodd" d="M184 39L205 18.5L226.5 39V66L205 83L184 66V39ZM205 26L187.679 56H202V73C202 74.6569 203.343 76 205 76C206.657 76 208 74.6569 208 73V56H222.321L205 26Z" fill="white"/>
<path d="M226 77L204.5 91.5L184 77" stroke="white" stroke-width="6" stroke-linecap="round" stroke-linejoin="round"/>
<path d="M138.5 71.5L125 34L112.5 71.5H100L125 103.5L150 71.5H138.5Z" fill="white" stroke="white" stroke-width="4" stroke-linejoin="round"/>
<path d="M111.5 179L125 216.5L137.5 179H150L125 147L100 179H111.5Z" fill="white" stroke="white" stroke-width="4" stroke-linejoin="round"/>
<path d="M71.5 110.5L34 124L71.5 136.5V149L103.5 124L71.5 99V110.5Z" fill="white" stroke="white" stroke-width="4" stroke-linejoin="round"/>
<path d="M178 137.5L215.5 124L178 111.5V99L146 124L178 149V137.5Z" fill="white" stroke="white" stroke-width="4" stroke-linejoin="round"/>
<circle cx="125" cy="125" r="11" fill="white"/>
</svg>
