<svg width="250" height="250" viewBox="0 0 250 250" fill="none" xmlns="http://www.w3.org/2000/svg">
<path d="M225.5 96C228.479 105.1 229.365 111.758 229.5 126.5C227.028 200.4 207.34 225.194 125 226.5C47.9507 225.247 22.4047 206.425 22 126.5C23.6041 46.7113 45.3279 23.0994 125 22.5C149.305 22.6661 160.207 24.9751 173 34.5" stroke="white" stroke-width="8" stroke-linecap="round"/>
<path fill-rule="evenodd" clip-rule="evenodd" d="M184 39L205 18.5L226.5 39V66L205 83L184 66V39ZM205 26L187.679 56H202V73C202 74.6569 203.343 76 205 76C206.657 76 208 74.6569 208 73V56H222.321L205 26Z" fill="white"/>
<path d="M226 77L204.5 91.5L184 77" stroke="white" stroke-width="6" stroke-linecap="round" stroke-linejoin="round"/>
<path fill-rule="evenodd" clip-rule="evenodd" d="M104.5 106.5L131 148.5L104.5 188H55L31 148.5L55 106.5H104.5ZM106 147L75 135V124L50.5 147L75 170V157L106 147Z" fill="white"/>
<path fill-rule="evenodd" clip-rule="evenodd" d="M137.5 60L111 102L137.5 141.5H187L211 102L187 60H137.5ZM136 100.5L167 88.5V77.5L191.5 100.5L167 123.5V110.5L136 100.5Z" fill="white"/>
</svg>
