<svg width="250" height="250" viewBox="0 0 250 250" fill="none" xmlns="http://www.w3.org/2000/svg">
<path d="M225.5 96C228.479 105.1 229.365 111.758 229.5 126.5C227.028 200.4 207.34 225.194 125 226.5C47.9507 225.247 22.4047 206.425 22 126.5C23.6041 46.7113 45.3279 23.0994 125 22.5C149.305 22.6661 160.207 24.9751 173 34.5" stroke="white" stroke-width="8" stroke-linecap="round"/>
<path fill-rule="evenodd" clip-rule="evenodd" d="M184 39L205 18.5L226.5 39V66L205 83L184 66V39ZM205 26L187.679 56H202V73C202 74.6569 203.343 76 205 76C206.657 76 208 74.6569 208 73V56H222.321L205 26Z" fill="white"/>
<path d="M226 77L204.5 91.5L184 77" stroke="white" stroke-width="6" stroke-linecap="round" stroke-linejoin="round"/>
<circle cx="124.59" cy="124.59" r="78.5901" stroke="white" stroke-width="8"/>
<path d="M123.721 46.4369V64.4369" stroke="white" stroke-width="8" stroke-linecap="round" stroke-linejoin="round"/>
<path d="M202.459 128.937H185.459" stroke="white" stroke-width="8" stroke-linecap="round" stroke-linejoin="round"/>
<path d="M65.4595 128.937H45.9595" stroke="white" stroke-width="8" stroke-linecap="round" stroke-linejoin="round"/>
<path d="M124.59 186.937V201.437" stroke="white" stroke-width="8" stroke-linecap="round" stroke-linejoin="round"/>
<path fill-rule="evenodd" clip-rule="evenodd" d="M184.459 159.437L142.959 112.437V93.4369L124.959 73.4369L107.459 93.4369V112.437L63.9595 159.437H107.459L124.959 177.937L142.959 159.437H184.459ZM124.459 90.4369L130.959 97.9369V116.937L141.959 128.937H105.959L117.959 116.937V97.9369L124.459 90.4369Z" fill="white"/>
</svg>
