<svg width="250" height="250" viewBox="0 0 250 250" fill="none" xmlns="http://www.w3.org/2000/svg">
<rect width="250" height="250" fill="none"/>
<rect width="250" height="250" fill="none"/>
<path d="M200 170L124.5 206L48.5 170H40.5L48.5 181L124.5 223.25L200 181L207.795 170H200Z" fill="#FFAB18" stroke="black" stroke-width="2.44318"/>
<path d="M75.6364 144.494L26.7727 101.739H17V144.494L124.5 202L232 144.494V101.739H222.227L173.364 144.494H75.6364Z" fill="#FFAB18" stroke="black" stroke-width="2.44318"/>
<path d="M104.955 99.1818L124.5 60.0909L144.045 99.1818H183.136L145.267 127.278L163.591 171.256L124.5 148.045L84.1875 171.256L103.733 127.278L65.8636 99.1818H104.955Z" fill="#FFAB18" stroke="black" stroke-width="2.44318"/>
<path d="M36.5455 104.182L26.7727 94.4091V84.6364L36.5455 74.8636L104.955 32.108V26H114.727L119.614 35.7727L114.727 45.5455L46.3182 89.5227V104.182H36.5455Z" fill="#FFAB18" stroke="black" stroke-width="2.44318"/>
<path d="M212.455 104.182L222.227 94.4091V84.6364L212.455 74.8636L144.045 32.108V26H134.273L129.386 35.7727L134.273 45.5455L202.682 89.5227V104.182H212.455Z" fill="#FFAB18" stroke="black" stroke-width="2.44318"/>
</svg>
