<svg width="250" height="250" viewBox="0 0 250 250" fill="none" xmlns="http://www.w3.org/2000/svg">
<circle cx="70.8729" cy="125.749" r="58.8729" fill="#33E7FF"/>
<circle cx="104.414" cy="124.87" r="87.87" fill="url(#paint0_linear_7_44)"/>
<circle cx="197.557" cy="124.87" r="45.6924" fill="#0066FF"/>
<path d="M169.438 114.326C161.76 115.312 157.93 117.6 151.864 124.87C151.557 130.8 152.104 134.072 154.5 139.808C164.866 141.094 170.136 141.085 172.074 131.021C169.735 123.959 172.014 121.19 180.861 117.84C185.382 117.891 188.087 117.597 196.678 109.932C206.039 99.7508 206.207 96.8285 201.95 94.1155C192.277 91.3603 187.267 91.101 180.861 98.509C179.747 105.234 178.343 108.877 169.438 114.326Z" fill="#C6D6FF"/>
<path d="M225.675 106.417C228.311 104.66 234.385 104.933 239.734 107.296L239.826 107.527C241.141 110.851 241.511 111.787 242.37 116.083C243.249 120.476 238.57 120.199 237.977 123.113C236.285 125.754 234.929 126.516 231.826 126.627C228.433 127.053 227.559 128.081 227.432 131.021C229.898 134.69 229.608 136.402 226.554 138.929C222.733 141.779 220.345 141.306 216.009 139.808C212.886 140.72 211.202 141.39 210.737 148.595C207.55 151.577 205.074 152.367 199.314 152.11C191.776 152.298 190.527 145.08 194.042 141.565C197.557 138.05 201.95 142.444 202.829 134.536C203.707 126.627 198.816 128.389 203.707 121.355C208.93 116.955 211.534 117.094 216.009 118.719C223.365 117.733 223.039 108.175 225.675 106.417Z" fill="#C6D6FF"/>
<path d="M174.71 164.411C164.435 137.447 163.518 120.481 174.71 85.3285C180.374 82.2529 188.255 78.6858 197.557 79.1776C217.024 80.3136 227.935 87.6359 237.098 102.903C240.994 109.012 242.596 116.62 243.249 123.991C242.936 130.11 242.76 137.369 238.856 145.08C229.16 162.629 216.405 169.425 194.921 170.562C185.716 170.69 179.49 166.471 174.71 164.411Z" fill="black" fill-opacity="0.3"/>
<defs>
<linearGradient id="paint0_linear_7_44" x1="57.8433" y1="51.0592" x2="165.045" y2="192.53" gradientUnits="userSpaceOnUse">
<stop stop-color="#FFE600"/>
<stop offset="1" stop-color="#FFC700"/>
</linearGradient>
</defs>
</svg>
