<svg width="250" height="250" viewBox="0 0 250 250" fill="none" xmlns="http://www.w3.org/2000/svg">
<path d="M22 127C23.6041 47.2113 45.3279 23.5994 125 23C217.123 23.4947 227.912 55.72 229.5 127C227.028 200.9 207.34 225.694 125 227C47.9507 225.747 22.4047 206.926 22 127Z" stroke="white" stroke-width="8" stroke-linecap="round"/>
<path d="M136.5 35H117V47H98.5V60L111.5 68H142.5L153.5 60V47H136.5V35Z" fill="white" stroke="white" stroke-width="4" stroke-linejoin="round"/>
<path d="M141.5 76H111.5V162C123.216 169.558 129.784 169.937 141.5 162V76Z" fill="white" stroke="white" stroke-width="4" stroke-linejoin="round"/>
<path d="M201.5 142H157V154.5L164 157L132 179.5V214.5L145 203V186.5H168.5L183 179.5L171 170.5V164.5L201.5 142Z" fill="white" stroke="white" stroke-width="4" stroke-linejoin="round"/>
<path d="M51 142.5H95.5V155L88.5 157.5L120.5 180V215L107.5 203.5V187H84L69.5 180L81.5 171V165L51 142.5Z" fill="white" stroke="white" stroke-width="4" stroke-linejoin="round"/>
</svg>
