<svg width="250" height="250" viewBox="0 0 250 250" fill="none" xmlns="http://www.w3.org/2000/svg">
<path d="M22 127C23.6041 47.2113 45.3279 23.5994 125 23C217.123 23.4947 227.912 55.72 229.5 127C227.028 200.9 207.34 225.694 125 227C47.9507 225.747 22.4047 206.926 22 127Z" stroke="white" stroke-width="8" stroke-linecap="round"/>
<path d="M68.7181 195.384C69.4824 197.749 72.0191 199.046 74.3839 198.282C76.7488 197.518 78.0462 194.981 77.2819 192.616L68.7181 195.384ZM75.5 91L79.8178 92.2677C79.9386 91.856 80 91.4291 80 91H75.5ZM75.5 46.5L49.5192 91.5H101.481L75.5 46.5ZM77.2819 192.616C71.284 174.058 68.9277 159.417 69.5045 144.339C70.0846 129.177 73.637 113.32 79.8178 92.2677L71.1822 89.7323C64.9477 110.968 61.1349 127.69 60.5111 143.995C59.8841 160.384 62.4854 176.1 68.7181 195.384L77.2819 192.616ZM80 91V87H71V91H80Z" fill="white"/>
<path d="M171.798 194.884C172.562 197.249 175.099 198.546 177.464 197.782C179.829 197.018 181.126 194.481 180.362 192.116L171.798 194.884ZM178.58 90.5L182.898 91.7677C183.018 91.356 183.08 90.9291 183.08 90.5H178.58ZM178.58 46L152.599 91H204.561L178.58 46ZM180.362 192.116C174.364 173.558 172.008 158.917 172.584 143.839C173.164 128.677 176.717 112.82 182.898 91.7677L174.262 89.2323C168.028 110.468 164.215 127.19 163.591 143.495C162.964 159.884 165.565 175.6 171.798 194.884L180.362 192.116ZM183.08 90.5V86.5H174.08V90.5H183.08Z" fill="white"/>
<path d="M124.1 206.745C125.339 208.899 128.09 209.64 130.245 208.4C132.399 207.161 133.14 204.41 131.9 202.255L124.1 206.745ZM128 107L132.459 107.609C132.486 107.407 132.5 107.204 132.5 107H128ZM115.623 135L111.695 132.805C111.517 133.123 111.378 133.462 111.282 133.813L115.623 135ZM128 36L102.019 81H153.981L128 36ZM132.5 107V83H123.5V107H132.5ZM131.9 202.255C124.184 188.847 119.76 177.799 117.96 167.451C116.17 157.168 116.925 147.304 119.964 136.187L111.282 133.813C107.961 145.963 107.037 157.179 109.093 168.994C111.138 180.744 116.083 192.813 124.1 206.745L131.9 202.255ZM119.551 137.195C127.22 123.472 131.533 114.382 132.459 107.609L123.541 106.391C122.887 111.179 119.539 118.769 111.695 132.805L119.551 137.195ZM132.5 83V76.5H123.5V83H132.5Z" fill="white"/>
</svg>
