<svg width="250" height="250" viewBox="0 0 250 250" fill="none" xmlns="http://www.w3.org/2000/svg">
<path d="M22 127C23.6041 47.2113 45.3279 23.5994 125 23C217.123 23.4947 227.912 55.72 229.5 127C227.028 200.9 207.34 225.694 125 227C47.9507 225.747 22.4047 206.926 22 127Z" stroke="white" stroke-width="8" stroke-linecap="round"/>
<path d="M154.5 73.5C163.305 84.1507 173.365 98.0434 163 124M175 57C187.289 76.6908 201.415 92.0552 185 134" stroke="white" stroke-width="14" stroke-linecap="round" stroke-linejoin="round"/>
<path d="M154.5 73.5C163.305 84.1507 173.365 98.0434 163 124M175 57C187.289 76.6908 201.415 92.0552 185 134" stroke="white" stroke-width="14" stroke-linecap="round" stroke-linejoin="round"/>
<path d="M97.9384 74C89.1336 84.6507 79.0735 98.5434 89.4384 124.5M77.4384 57.5C65.1498 77.1908 51.0232 92.5552 67.4384 134.5" stroke="white" stroke-width="14" stroke-linecap="round" stroke-linejoin="round"/>
<circle cx="126.5" cy="103" r="18.5" fill="white"/>
<path d="M137.5 129H132V200H159V182L137.5 129Z" fill="white"/>
<path d="M137.5 129H132V200H159V182L137.5 129Z" fill="white"/>
<path d="M137.5 129H132V200H159V182L137.5 129Z" fill="white"/>
<path d="M137.5 129H132V200H159V182L137.5 129Z" fill="white"/>
<path d="M137.5 129H132V200H159V182L137.5 129Z" stroke="white" stroke-width="4" stroke-linejoin="round"/>
<path d="M115.5 128.5H121V199.5H94V181.5L115.5 128.5Z" fill="white"/>
<path d="M115.5 128.5H121V199.5H94V181.5L115.5 128.5Z" fill="white"/>
<path d="M115.5 128.5H121V199.5H94V181.5L115.5 128.5Z" fill="white"/>
<path d="M115.5 128.5H121V199.5H94V181.5L115.5 128.5Z" fill="white"/>
<path d="M115.5 128.5H121V199.5H94V181.5L115.5 128.5Z" stroke="white" stroke-width="4" stroke-linejoin="round"/>
</svg>
