<svg width="250" height="250" viewBox="0 0 250 250" fill="none" xmlns="http://www.w3.org/2000/svg">
<path d="M22 127C23.6041 47.2113 45.3279 23.5994 125 23C217.123 23.4947 227.912 55.72 229.5 127C227.028 200.9 207.34 225.694 125 227C47.9507 225.747 22.4047 206.926 22 127Z" stroke="white" stroke-width="8" stroke-linecap="round"/>
<path d="M103.5 141.5L91 128L80 139L93 152L103.5 141.5Z" fill="white" stroke="white" stroke-width="2" stroke-linecap="round" stroke-linejoin="round"/>
<path d="M166.5 50.5L158 58.5C166.491 61.6196 169.369 64.9078 173 72L180.5 63.5C181.536 50.9693 175.967 49.9015 166.5 50.5Z" fill="white" stroke="white" stroke-width="2" stroke-linecap="round" stroke-linejoin="round"/>
<path fill-rule="evenodd" clip-rule="evenodd" d="M98.5 104L86 119L113 146.5L127 132.5L120.5 122.5L168.5 77C165.651 69.5894 162.304 66.697 155 62.5L106 108L98.5 104ZM119.726 125.312C120.106 125.713 120.089 126.346 119.688 126.726L110.188 135.726C109.787 136.106 109.154 136.089 108.774 135.688C108.394 135.287 108.411 134.654 108.812 134.274L118.312 125.274C118.713 124.894 119.346 124.911 119.726 125.312ZM110 116L112.5 120L102.5 128L110 116Z" fill="white"/>
<path d="M86 119L85.6159 118.68C85.4515 118.877 85.4633 119.167 85.6432 119.35L86 119ZM98.5 104L98.7353 103.559C98.5262 103.447 98.2676 103.498 98.1159 103.68L98.5 104ZM113 146.5L112.643 146.85C112.737 146.945 112.864 146.999 112.998 147C113.131 147.001 113.259 146.948 113.354 146.854L113 146.5ZM127 132.5L127.354 132.854C127.521 132.687 127.548 132.426 127.419 132.228L127 132.5ZM120.5 122.5L120.156 122.137C119.981 122.303 119.949 122.57 120.081 122.772L120.5 122.5ZM168.5 77L168.844 77.3629C168.991 77.2236 169.039 77.0095 168.967 76.8206L168.5 77ZM155 62.5L155.249 62.0665C155.059 61.9573 154.82 61.9845 154.66 62.1336L155 62.5ZM106 108L105.765 108.441C105.953 108.542 106.184 108.512 106.34 108.366L106 108ZM119.688 126.726L119.344 126.363L119.344 126.363L119.688 126.726ZM110.188 135.726L110.532 136.089L110.532 136.089L110.188 135.726ZM108.774 135.688L109.137 135.344L109.137 135.344L108.774 135.688ZM108.812 134.274L109.156 134.637L109.156 134.637L108.812 134.274ZM118.312 125.274L118.656 125.637L118.656 125.637L118.312 125.274ZM112.5 120L112.812 120.39C113.01 120.232 113.058 119.95 112.924 119.735L112.5 120ZM110 116L110.424 115.735C110.333 115.589 110.172 115.5 110 115.5C109.828 115.5 109.667 115.589 109.576 115.735L110 116ZM102.5 128L102.076 127.735C101.947 127.942 101.985 128.211 102.168 128.373C102.35 128.536 102.622 128.543 102.812 128.39L102.5 128ZM86.3841 119.32L98.8841 104.32L98.1159 103.68L85.6159 118.68L86.3841 119.32ZM113.357 146.15L86.3568 118.65L85.6432 119.35L112.643 146.85L113.357 146.15ZM126.646 132.146L112.646 146.146L113.354 146.854L127.354 132.854L126.646 132.146ZM120.081 122.772L126.581 132.772L127.419 132.228L120.919 122.228L120.081 122.772ZM168.156 76.6371L120.156 122.137L120.844 122.863L168.844 77.3629L168.156 76.6371ZM154.751 62.9335C158.394 65.0272 161.007 66.7713 163.062 68.8928C165.109 71.0061 166.626 73.5186 168.033 77.1794L168.967 76.8206C167.525 73.0709 165.945 70.4318 163.78 68.197C161.623 65.9705 158.909 64.1698 155.249 62.0665L154.751 62.9335ZM106.34 108.366L155.34 62.8664L154.66 62.1336L105.66 107.634L106.34 108.366ZM98.2647 104.441L105.765 108.441L106.235 107.559L98.7353 103.559L98.2647 104.441ZM120.032 127.089C120.633 126.519 120.659 125.57 120.089 124.968L119.363 125.656C119.553 125.857 119.544 126.173 119.344 126.363L120.032 127.089ZM110.532 136.089L120.032 127.089L119.344 126.363L109.844 135.363L110.532 136.089ZM108.411 136.032C108.981 136.633 109.93 136.659 110.532 136.089L109.844 135.363C109.643 135.553 109.327 135.544 109.137 135.344L108.411 136.032ZM108.468 133.911C107.867 134.481 107.841 135.43 108.411 136.032L109.137 135.344C108.947 135.143 108.956 134.827 109.156 134.637L108.468 133.911ZM117.968 124.911L108.468 133.911L109.156 134.637L118.656 125.637L117.968 124.911ZM120.089 124.968C119.519 124.367 118.57 124.341 117.968 124.911L118.656 125.637C118.857 125.447 119.173 125.456 119.363 125.656L120.089 124.968ZM112.924 119.735L110.424 115.735L109.576 116.265L112.076 120.265L112.924 119.735ZM102.812 128.39L112.812 120.39L112.188 119.61L102.188 127.61L102.812 128.39ZM109.576 115.735L102.076 127.735L102.924 128.265L110.424 116.265L109.576 115.735Z" fill="white"/>
<path d="M115.049 185.111L105.98 175.317L98 183.297L107.431 192.729L115.049 185.111Z" fill="white" stroke="white" stroke-width="1.45096" stroke-linecap="round" stroke-linejoin="round"/>
<path d="M160.754 119.092L154.587 124.896C160.747 127.159 162.835 129.545 165.47 134.69L170.911 128.524C171.662 119.433 167.622 118.658 160.754 119.092Z" fill="white" stroke="white" stroke-width="1.45096" stroke-linecap="round" stroke-linejoin="round"/>
<path fill-rule="evenodd" clip-rule="evenodd" d="M111.421 157.906L102.353 168.788L121.941 188.738L132.097 178.582L127.382 171.327L162.205 138.318C160.138 132.941 157.71 130.843 152.411 127.798L116.862 160.807L111.421 157.906ZM126.82 173.367C127.096 173.658 127.083 174.117 126.793 174.393L119.901 180.922C119.61 181.198 119.151 181.185 118.875 180.894C118.599 180.603 118.612 180.144 118.903 179.869L125.795 173.339C126.086 173.064 126.545 173.076 126.82 173.367ZM119.764 166.611L121.578 169.513L114.323 175.317L119.764 166.611Z" fill="white"/>
<path d="M102.353 168.788L102.074 168.555C101.955 168.699 101.963 168.909 102.094 169.042L102.353 168.788ZM111.421 157.906L111.592 157.585C111.44 157.505 111.253 157.541 111.143 157.673L111.421 157.906ZM121.941 188.738L121.682 188.993C121.75 189.062 121.842 189.101 121.939 189.101C122.036 189.102 122.129 189.063 122.197 188.995L121.941 188.738ZM132.097 178.582L132.354 178.838C132.475 178.717 132.495 178.528 132.402 178.384L132.097 178.582ZM127.382 171.327L127.132 171.064C127.005 171.184 126.982 171.378 127.078 171.525L127.382 171.327ZM162.205 138.318L162.454 138.581C162.561 138.48 162.596 138.325 162.543 138.187L162.205 138.318ZM152.411 127.798L152.592 127.484C152.454 127.404 152.281 127.424 152.164 127.532L152.411 127.798ZM116.862 160.807L116.692 161.128C116.828 161.2 116.996 161.179 117.109 161.073L116.862 160.807ZM126.793 174.393L127.042 174.656L127.042 174.656L126.793 174.393ZM119.901 180.922L119.651 180.659L119.651 180.659L119.901 180.922ZM118.875 180.894L119.138 180.645L119.138 180.645L118.875 180.894ZM118.903 179.869L119.152 180.132L119.152 180.132L118.903 179.869ZM125.795 173.339L125.545 173.076L125.545 173.076L125.795 173.339ZM121.578 169.513L121.805 169.796C121.948 169.681 121.983 169.477 121.886 169.321L121.578 169.513ZM119.764 166.611L120.072 166.419C120.006 166.313 119.889 166.249 119.764 166.249C119.639 166.249 119.523 166.313 119.457 166.419L119.764 166.611ZM114.323 175.317L114.016 175.125C113.922 175.275 113.95 175.47 114.082 175.588C114.214 175.706 114.412 175.711 114.55 175.6L114.323 175.317ZM102.632 169.02L111.7 158.138L111.143 157.673L102.074 168.555L102.632 169.02ZM122.2 188.484L102.612 168.534L102.094 169.042L121.682 188.993L122.2 188.484ZM131.841 178.325L121.684 188.482L122.197 188.995L132.354 178.838L131.841 178.325ZM127.078 171.525L131.793 178.779L132.402 178.384L127.686 171.129L127.078 171.525ZM161.955 138.054L127.132 171.064L127.631 171.59L162.454 138.581L161.955 138.054ZM152.23 128.113C154.874 129.632 156.768 130.897 158.259 132.436C159.744 133.969 160.845 135.792 161.866 138.448L162.543 138.187C161.498 135.467 160.351 133.553 158.78 131.931C157.216 130.316 155.247 129.01 152.592 127.484L152.23 128.113ZM117.109 161.073L152.658 128.064L152.164 127.532L116.616 160.542L117.109 161.073ZM111.251 158.226L116.692 161.128L117.033 160.487L111.592 157.585L111.251 158.226ZM127.042 174.656C127.478 174.243 127.497 173.554 127.084 173.118L126.557 173.617C126.695 173.762 126.689 173.992 126.543 174.129L127.042 174.656ZM120.15 181.185L127.042 174.656L126.543 174.129L119.651 180.659L120.15 181.185ZM118.612 181.144C119.025 181.58 119.714 181.599 120.15 181.185L119.651 180.659C119.506 180.796 119.276 180.79 119.138 180.645L118.612 181.144ZM118.653 179.605C118.217 180.019 118.198 180.707 118.612 181.144L119.138 180.645C119.001 180.499 119.007 180.27 119.152 180.132L118.653 179.605ZM125.545 173.076L118.653 179.605L119.152 180.132L126.044 173.603L125.545 173.076ZM127.084 173.118C126.67 172.681 125.982 172.663 125.545 173.076L126.044 173.603C126.19 173.465 126.419 173.471 126.557 173.617L127.084 173.118ZM121.886 169.321L120.072 166.419L119.457 166.804L121.27 169.705L121.886 169.321ZM114.55 175.6L121.805 169.796L121.351 169.23L114.097 175.034L114.55 175.6ZM119.457 166.419L114.016 175.125L114.631 175.509L120.072 166.804L119.457 166.419Z" fill="white"/>
<path d="M59.0487 130.111L49.9803 120.317L42 128.297L51.4312 137.729L59.0487 130.111Z" fill="white" stroke="white" stroke-width="1.45096" stroke-linecap="round" stroke-linejoin="round"/>
<path d="M104.754 64.0924L98.5873 69.8963C104.747 72.1594 106.835 74.545 109.47 79.6902L114.911 73.5237C115.662 64.4329 111.622 63.6582 104.754 64.0924Z" fill="white" stroke="white" stroke-width="1.45096" stroke-linecap="round" stroke-linejoin="round"/>
<path fill-rule="evenodd" clip-rule="evenodd" d="M55.4214 102.906L46.3529 113.788L65.9408 133.738L76.0975 123.582L71.3819 116.327L106.205 83.3176C104.138 77.9414 101.71 75.843 96.4109 72.7982L60.8624 105.807L55.4214 102.906ZM70.8203 118.367C71.0959 118.658 71.0835 119.117 70.7926 119.393L63.9006 125.922C63.6097 126.198 63.1505 126.185 62.875 125.894C62.5994 125.603 62.6118 125.144 62.9027 124.869L69.7947 118.339C70.0856 118.064 70.5448 118.076 70.8203 118.367ZM63.7644 111.611L65.578 114.513L58.3233 120.317L63.7644 111.611Z" fill="white"/>
<path d="M46.3529 113.788L46.0742 113.555C45.9549 113.699 45.9635 113.909 46.094 114.042L46.3529 113.788ZM55.4214 102.906L55.5921 102.585C55.4404 102.505 55.2527 102.541 55.1427 102.673L55.4214 102.906ZM65.9408 133.738L65.682 133.992C65.7498 134.062 65.8423 134.101 65.9391 134.101C66.0359 134.102 66.1289 134.063 66.1973 133.995L65.9408 133.738ZM76.0975 123.582L76.354 123.838C76.4751 123.717 76.495 123.528 76.4016 123.384L76.0975 123.582ZM71.3819 116.327L71.1323 116.064C71.0053 116.184 70.9824 116.378 71.0777 116.525L71.3819 116.327ZM106.205 83.3176L106.454 83.5809C106.561 83.4798 106.596 83.3245 106.543 83.1875L106.205 83.3176ZM96.4109 72.7982L96.5916 72.4837C96.4538 72.4045 96.2805 72.4242 96.1641 72.5324L96.4109 72.7982ZM60.8624 105.807L60.6917 106.128C60.8282 106.2 60.9959 106.179 61.1093 106.073L60.8624 105.807ZM70.7926 119.393L71.0421 119.656L71.0421 119.656L70.7926 119.393ZM63.9006 125.922L63.6511 125.659L63.6511 125.659L63.9006 125.922ZM62.875 125.894L63.1383 125.645L63.1383 125.645L62.875 125.894ZM62.9027 124.869L63.1521 125.132L63.1521 125.132L62.9027 124.869ZM69.7947 118.339L69.5452 118.076L69.5452 118.076L69.7947 118.339ZM65.578 114.513L65.8047 114.796C65.9484 114.681 65.9832 114.477 65.8857 114.321L65.578 114.513ZM63.7644 111.611L64.072 111.419C64.0057 111.313 63.8894 111.249 63.7644 111.249C63.6393 111.249 63.523 111.313 63.4568 111.419L63.7644 111.611ZM58.3233 120.317L58.0157 120.125C57.9219 120.275 57.95 120.47 58.0821 120.588C58.2142 120.706 58.4118 120.711 58.5499 120.6L58.3233 120.317ZM46.6315 114.02L55.7 103.138L55.1427 102.673L46.0742 113.555L46.6315 114.02ZM66.1996 133.484L46.6117 113.534L46.094 114.042L65.682 133.992L66.1996 133.484ZM75.841 123.325L65.6843 133.482L66.1973 133.995L76.354 123.838L75.841 123.325ZM71.0777 116.525L75.7934 123.779L76.4016 123.384L71.686 116.129L71.0777 116.525ZM105.955 83.0544L71.1323 116.064L71.6314 116.59L106.454 83.5809L105.955 83.0544ZM96.2302 73.1127C98.8735 74.6316 100.768 75.8969 102.259 77.436C103.744 78.9692 104.845 80.7919 105.866 83.4478L106.543 83.1875C105.498 80.4671 104.351 78.5525 102.78 76.9313C101.216 75.3159 99.2471 74.0096 96.5916 72.4837L96.2302 73.1127ZM61.1093 106.073L96.6577 73.064L96.1641 72.5324L60.6156 105.542L61.1093 106.073ZM55.2507 103.226L60.6917 106.128L61.0331 105.487L55.5921 102.585L55.2507 103.226ZM71.0421 119.656C71.4784 119.243 71.497 118.554 71.0837 118.118L70.557 118.617C70.6948 118.762 70.6886 118.992 70.5431 119.129L71.0421 119.656ZM64.15 126.185L71.0421 119.656L70.5431 119.129L63.6511 125.659L64.15 126.185ZM62.6116 126.144C63.025 126.58 63.7137 126.599 64.15 126.185L63.6511 125.659C63.5057 125.796 63.2761 125.79 63.1383 125.645L62.6116 126.144ZM62.6532 124.605C62.2169 125.019 62.1983 125.707 62.6116 126.144L63.1383 125.645C63.0005 125.499 63.0067 125.27 63.1521 125.132L62.6532 124.605ZM69.5452 118.076L62.6532 124.605L63.1521 125.132L70.0442 118.603L69.5452 118.076ZM71.0837 118.118C70.6703 117.681 69.9815 117.663 69.5452 118.076L70.0442 118.603C70.1896 118.465 70.4192 118.471 70.557 118.617L71.0837 118.118ZM65.8857 114.321L64.072 111.419L63.4568 111.804L65.2704 114.705L65.8857 114.321ZM58.5499 120.6L65.8047 114.796L65.3514 114.23L58.0967 120.034L58.5499 120.6ZM63.4568 111.419L58.0157 120.125L58.6309 120.509L64.072 111.804L63.4568 111.419Z" fill="white"/>
<path d="M163.5 178.5H148L179.5 139.5L207 178.5H193.5V191L179.5 202.5H163.5V178.5Z" fill="white" stroke="white" stroke-width="2" stroke-linecap="round" stroke-linejoin="round"/>
</svg>
