<svg width="250" height="250" viewBox="0 0 250 250" fill="none" xmlns="http://www.w3.org/2000/svg">
<path d="M22 127C23.6041 47.2113 45.3279 23.5994 125 23C217.123 23.4947 227.912 55.72 229.5 127C227.028 200.9 207.34 225.694 125 227C47.9507 225.747 22.4047 206.926 22 127Z" stroke="white" stroke-width="8" stroke-linecap="round"/>
<path d="M96 168L75.5 149.5L53.5 184.5L62.5 191.5L96 168Z" fill="white" stroke="white" stroke-width="4" stroke-linejoin="round"/>
<path d="M73 190.5L83.5 183L79.5 194L73 190.5Z" fill="white" stroke="white" stroke-width="4" stroke-linejoin="round"/>
<path d="M54.5 173L61.5 162L47 166.5L54.5 173Z" fill="white" stroke="white" stroke-width="4" stroke-linejoin="round"/>
<path d="M174.5 49.5L161.5 61.5C172.5 67.8015 177.913 71.9297 183.5 82.5L195.5 70.5C191.523 58.4409 185.75 54.9157 174.5 49.5Z" fill="white" stroke="white" stroke-width="4" stroke-linejoin="round"/>
<path fill-rule="evenodd" clip-rule="evenodd" d="M155.5 67.5C166.244 73.0589 171.472 77.104 178.5 87L101.5 164.5L80 144L155.5 67.5ZM150.5 88.5L156 94L101 149L96.5 143.5L150.5 88.5Z" fill="white"/>
<path d="M178.5 87L178.855 87.3524C179.026 87.1798 179.049 86.9089 178.908 86.7105L178.5 87ZM155.5 67.5L155.73 67.0559C155.535 66.9553 155.298 66.9929 155.144 67.1488L155.5 67.5ZM101.5 164.5L101.155 164.862C101.352 165.05 101.663 165.045 101.855 164.852L101.5 164.5ZM80 144L79.6441 143.649C79.5499 143.744 79.498 143.874 79.5001 144.008C79.5021 144.142 79.5579 144.269 79.655 144.362L80 144ZM156 94L156.354 94.3536C156.549 94.1583 156.549 93.8417 156.354 93.6464L156 94ZM150.5 88.5L150.854 88.1464C150.759 88.0521 150.631 87.9994 150.498 88C150.364 88.0006 150.237 88.0545 150.143 88.1497L150.5 88.5ZM101 149L100.613 149.317C100.702 149.426 100.834 149.492 100.975 149.499C101.116 149.506 101.254 149.453 101.354 149.354L101 149ZM96.5 143.5L96.1432 143.15C95.9645 143.332 95.9515 143.619 96.113 143.817L96.5 143.5ZM178.908 86.7105C175.378 81.7401 172.286 78.2188 168.714 75.2396C165.145 72.2624 161.115 69.8419 155.73 67.0559L155.27 67.9441C160.63 70.717 164.586 73.0985 168.073 76.0075C171.559 78.9146 174.594 82.3639 178.092 87.2895L178.908 86.7105ZM101.855 164.852L178.855 87.3524L178.145 86.6476L101.145 164.148L101.855 164.852ZM79.655 144.362L101.155 164.862L101.845 164.138L80.345 143.638L79.655 144.362ZM155.144 67.1488L79.6441 143.649L80.3559 144.351L155.856 67.8512L155.144 67.1488ZM156.354 93.6464L150.854 88.1464L150.146 88.8536L155.646 94.3536L156.354 93.6464ZM101.354 149.354L156.354 94.3536L155.646 93.6464L100.646 148.646L101.354 149.354ZM96.113 143.817L100.613 149.317L101.387 148.683L96.887 143.183L96.113 143.817ZM150.143 88.1497L96.1432 143.15L96.8568 143.85L150.857 88.8503L150.143 88.1497Z" fill="white"/>
<path fill-rule="evenodd" clip-rule="evenodd" d="M131 177.5L161.5 137.5L190.5 177.5H173.5V199H149V177.5H131ZM165.5 189H156.5V166H152.5L161.5 154.5L170 166H165.5V189Z" fill="white"/>
<path d="M161.5 137.5L161.905 137.207C161.812 137.079 161.664 137.002 161.506 137C161.348 136.998 161.198 137.071 161.102 137.197L161.5 137.5ZM131 177.5L130.602 177.197C130.487 177.348 130.468 177.551 130.552 177.722C130.636 177.892 130.81 178 131 178V177.5ZM190.5 177.5V178C190.688 178 190.86 177.895 190.945 177.727C191.031 177.56 191.015 177.359 190.905 177.207L190.5 177.5ZM173.5 177.5V177C173.224 177 173 177.224 173 177.5H173.5ZM173.5 199V199.5C173.776 199.5 174 199.276 174 199H173.5ZM149 199H148.5C148.5 199.276 148.724 199.5 149 199.5V199ZM149 177.5H149.5C149.5 177.224 149.276 177 149 177V177.5ZM156.5 189H156C156 189.276 156.224 189.5 156.5 189.5V189ZM165.5 189V189.5C165.776 189.5 166 189.276 166 189H165.5ZM156.5 166H157C157 165.724 156.776 165.5 156.5 165.5V166ZM152.5 166L152.106 165.692C151.988 165.842 151.967 166.047 152.051 166.219C152.134 166.391 152.309 166.5 152.5 166.5V166ZM161.5 154.5L161.902 154.203C161.809 154.077 161.663 154.002 161.507 154C161.351 153.998 161.203 154.069 161.106 154.192L161.5 154.5ZM170 166V166.5C170.189 166.5 170.361 166.394 170.446 166.225C170.531 166.057 170.514 165.855 170.402 165.703L170 166ZM165.5 166V165.5C165.224 165.5 165 165.724 165 166H165.5ZM161.102 137.197L130.602 177.197L131.398 177.803L161.898 137.803L161.102 137.197ZM190.905 177.207L161.905 137.207L161.095 137.793L190.095 177.793L190.905 177.207ZM173.5 178H190.5V177H173.5V178ZM174 199V177.5H173V199H174ZM149 199.5H173.5V198.5H149V199.5ZM148.5 177.5V199H149.5V177.5H148.5ZM131 178H149V177H131V178ZM156.5 189.5H165.5V188.5H156.5V189.5ZM156 166V189H157V166H156ZM152.5 166.5H156.5V165.5H152.5V166.5ZM161.106 154.192L152.106 165.692L152.894 166.308L161.894 154.808L161.106 154.192ZM170.402 165.703L161.902 154.203L161.098 154.797L169.598 166.297L170.402 165.703ZM165.5 166.5H170V165.5H165.5V166.5ZM166 189V166H165V189H166Z" fill="white"/>
</svg>
