<svg width="250" height="250" viewBox="0 0 250 250" fill="none" xmlns="http://www.w3.org/2000/svg">
<path d="M182 201H61.5L122.5 136.5L182 201Z" fill="#FDFDFD"/>
<path d="M122.5 118.5L91 149L44.5 118.5H77L41.5 62.5L102.5 98L122.5 40.5L141 98L205.5 62.5L167.5 118.5H199.5L155.5 149L122.5 118.5Z" fill="#FDFDFD"/>
<path d="M182 201H61.5L122.5 136.5L182 201Z" stroke="black"/>
<path d="M122.5 118.5L91 149L44.5 118.5H77L41.5 62.5L102.5 98L122.5 40.5L141 98L205.5 62.5L167.5 118.5H199.5L155.5 149L122.5 118.5Z" stroke="black"/>
</svg>
