<svg width="250" height="250" viewBox="0 0 250 250" fill="none" xmlns="http://www.w3.org/2000/svg">
<path d="M46 86H100L118.75 49.5L137.5 86V156L143 162L148 156V86L165.25 49.5L182.5 86V156L197.5 178.5H177.5V197H152.5V178.5H133V197H106V178.5H92L100 162V135.5H55.5V120H100V99H46V86Z" fill="#FDFDFD"/>
<path d="M88.5 153H65L67.5 167.5H83L88.5 162V153Z" fill="#FDFDFD"/>
<path d="M100 86H46V99H100M100 86V99M100 86H118.75H137.5M100 86L118.75 49.5L137.5 86M137.5 86V156L143 162L148 156V86M148 86H165.25H182.5M148 86L165.25 49.5L182.5 86M182.5 86V156L197.5 178.5H177.5V197H152.5V178.5H133V197H106V178.5H92L100 162V135.5M100 135.5H55.5V120H100M100 135.5V120M100 120V99M65 153H88.5V162L83 167.5H67.5L65 153Z" stroke="black"/>
</svg>
