<svg width="250" height="250" viewBox="0 0 250 250" fill="none" xmlns="http://www.w3.org/2000/svg">
<path d="M228.5 170.5V13H144.5L152.5 33.5L212 33.5V160L125 214.5V236.5L228.5 170.5Z" fill="#FDFDFD"/>
<path d="M124 214.5V236.5L88.5 214.5L100.5 199L124 214.5Z" fill="#FDFDFD"/>
<path d="M60.5 195L22 170.5V125.75L39 133.25V160L72.5 181.5L60.5 195Z" fill="#FDFDFD"/>
<path d="M155 154L84 200.5L122 140.5L100.5 114L81 135L74.5 114L66 117.5L50.5 148.5L26 13L163 38.5L142.5 51L163 73L144.5 77.5L132 93.5L155 124V154Z" fill="#FDFDFD"/>
<path d="M228.5 170.5V13H144.5L152.5 33.5L212 33.5V160L125 214.5V236.5L228.5 170.5Z" stroke="black"/>
<path d="M124 214.5V236.5L88.5 214.5L100.5 199L124 214.5Z" stroke="black"/>
<path d="M60.5 195L22 170.5V125.75L39 133.25V160L72.5 181.5L60.5 195Z" stroke="black"/>
<path d="M155 154L84 200.5L122 140.5L100.5 114L81 135L74.5 114L66 117.5L50.5 148.5L26 13L163 38.5L142.5 51L163 73L144.5 77.5L132 93.5L155 124V154Z" stroke="black"/>
</svg>
