<svg width="250" height="250" viewBox="0 0 250 250" fill="none" xmlns="http://www.w3.org/2000/svg">
<path d="M83.5861 205.119L45.6722 240L14.2551 207.643L18.0465 203.851L21.8379 200.06L47.1887 226.351L85.1027 190.712L97.2351 202.844L116.95 128.533L39.606 146.732L60.0795 164.172L13.8245 207.394L7 199.811L45.6722 163.414L22.1656 143.699L130.599 117.159L101.026 223.318L83.5861 205.119Z" fill="#E3DFDB" stroke="black" stroke-width="1.51656"/>
<path d="M46.4304 216.493L38.0894 208.152L109.368 138.391L95.7185 191.47L82.8278 183.129L46.4304 216.493Z" fill="#E3DFDB" stroke="black" stroke-width="1.51656"/>
<path d="M117.709 208.152V196.02C146.377 196.709 160.737 191.393 184.437 175.546L194.295 188.437C166.48 203.821 149.963 209.061 117.709 208.152Z" fill="#E3DFDB" stroke="black" stroke-width="1.51656"/>
<path d="M225.384 113.368L154.106 123.983L207.185 188.437L211.735 164.93L232.209 171.755L242.825 141.424L225.384 136.116V113.368Z" fill="#E3DFDB" stroke="black" stroke-width="1.51656"/>
<path d="M151.073 36.0232L153.348 21.6159C205.174 38.9067 219.73 59.1359 227.659 108.06H210.977C206.09 68.7879 193.223 52.8668 151.073 36.0232Z" fill="#E3DFDB" stroke="black" stroke-width="1.51656"/>
<path d="M143.49 21.6159L119.983 29.1987L113.159 11L87.3775 18.5828L92.6854 36.7815L69.9371 44.3642L128.325 95.9272L143.49 21.6159Z" fill="#E3DFDB" stroke="black" stroke-width="1.51656"/>
<path d="M72.2119 54.2219L60.0795 45.8808C33.9042 75.2071 29.2786 94.3441 30.5066 132.325H47.1887C42.8162 100.53 46.7425 83.2874 72.2119 54.2219Z" fill="#E3DFDB" stroke="black" stroke-width="1.51656"/>
</svg>
